<?xml version="1.0" encoding="UTF-8"?>
<svg xmlns="http://www.w3.org/2000/svg" version="1.1" xmlns:xlink="http://www.w3.org/1999/xlink" viewBox="0 0 1755.5 1000.8">
  <defs>
    <style>
      .cls-1 {
        fill: #2ca9df;
      }

      .cls-1, .cls-2, .cls-3, .cls-4 {
        stroke-width: 0px;
      }

      .cls-2 {
        fill: none;
      }

      .cls-3 {
        fill: #333;
      }

      .cls-5 {
        display: none;
        opacity: .8;
      }

      .cls-4 {
        fill: #e71a0d;
      }
    </style>
  </defs>
  <g id="Calque_1" data-name="Calque 1" class="cls-5">
    <image width="861" height="1390" transform="translate(567.7 162.8) scale(.3)" xlink:href="../../../Sources/mme-braemar-ancienne-dynastie-de-la-couronne-la-couronne-de-cunard-dynasty-majeste-de-la-couronne-norvegienne-et-dynastie-est-un-navire-de-croisiere-actuellement-avec-fred-olsen-jg9bnw.jpg"/>
    <rect class="cls-4" x="716.4" y="393.1" width="2.2" height="12.4"/>
  </g>
  <g id="Calque_2" data-name="Calque 2">
    <g>
      <path class="cls-3" d="M-827.4,439.8c-5.9,15.6-11.7,30.9-17.4,46.3-2.3,6.4-4.2,12.9-6.5,19.4-.5,1.5-1.3,3.1-2.5,4-6.9,5-14,9.8-21.6,15.1-7.3-9.6-17.7-17.3-31.9-17.3-14,0-24.3,7.5-32.9,18.8-8.5-11.2-18.8-18.8-32.8-18.8-14,0-24.5,7.2-33,18.6-1.4-1.5-2.4-2.8-3.6-3.8-4.2-3.5-7.9-7.9-12.7-10.2-4.7-2.3-6.7-5.4-8.3-10-7.1-20.7-14.7-41.3-22.3-62.4,9.5-5.4,19.6-11.1,29.7-16.8,26.6-15,53.3-30,80-44.9,1.4-.8,4-1,5.3-.3,36.4,20.4,72.7,40.9,109.1,61.4.5.3,1,.8,1.4,1h0Z"/>
      <path class="cls-3" d="M-864.7,359.1h-21.6v-23h-40.6c-1.2-11.2-2.3-21.9-3.5-32.5h-19.7c-1.2,10.9-2.3,21.6-3.5,32.7h-41v23.2h-21.3c-1.2,15.3-2.3,30.1-3.6,45.8,3.9-2.1,6.8-3.9,9.9-5.4,3.1-1.4,4.3-3.4,4.4-6.9,0-5.5.8-11,1.1-16.4.2-2.8,1.3-4,4.3-4,39.6,0,79.3.1,118.9,0,3.3,0,4.3,1.3,4.5,4.4.2,5.7.7,11.3,1.2,16.9.1,1.4.3,3.4,1.2,4,3.9,2.6,8.1,4.7,13,7.4-1.3-16.1-2.5-30.9-3.8-46.3ZM-899.5,358.9h-81.4v-9.2h81.4v9.2Z"/>
      <path class="cls-3" d="M-808.4,536.5v12.6h0c0,.1-.2.1-.2.1-7.9.5-13.5-3.5-18.5-8.7-.5-.5-.7-1.1-1.1-1.6-9-12-15.9-12.1-25.2-.5-12,15-28.9,15.1-41.1.3-1.8-2.2-3.7-4.3-5.8-6.2-3.9-3.5-9.8-3.6-13.6,0-2.4,2.2-4.5,4.9-6.7,7.4-11,12.9-27.3,13.1-38.6.5-2.1-2.4-4-4.9-6.3-7.1-4.8-4.7-10.7-4.7-15.5,0-2.1,2.1-4,4.5-5.9,6.8-10.1,12.3-27.8,12.7-38.3.4-2.2-2.5-4.2-5.2-6.6-7.5-4.8-4.6-10.3-4.5-15,.2-2.7,2.7-5,5.8-7.7,8.5-4.6,4.6-9.9,7.9-17.1,7.5h-.4s0,0,0,0v-.4c0,0,0-10.1,0-10.1,3.1-2.8,5.8-5,8.3-7.3,1.3-1.2,2.5-2.4,3.7-3.6,4.5-4.8,9-9.3,15.8-10.8,9.2-2,16.7,1,23,7.5,2.4,2.5,4.5,5.4,6.9,7.9,5.1,5.2,11.1,5.3,16.2.1,2.1-2.1,4-4.5,6-6.7,11-12.5,26.5-12.7,37.8-.4,2.2,2.5,4.2,5.1,6.6,7.5,4.8,4.8,10.6,4.7,15.4-.1,2.5-2.5,4.6-5.3,6.9-7.9,10.5-11.3,25.3-11.5,36.1-.5,2.5,2.6,4.7,5.6,7.3,8.2,5,5,10.8,5,15.8,0,2.3-2.4,4.4-5,6.6-7.5,10.9-12,26.8-11.7,37.5.5,1.8,2.1,3.4,4.4,5.4,6.4,2.2,2.2,4.8,4,8.4,4.4h0Z"/>
    </g>
    <polygon class="cls-3" points="-1649.2 185.5 -1649.2 198.2 -1158.6 198.2 -1163.4 185.5 -1649.2 185.5"/>
    <path class="cls-1" d="M-1004.9,508.2c-1,.2-2,.2-2.9,0h2.9Z"/>
    <path class="cls-1" d="M-938.7,508.2c-1,.2-2.1.2-3.1,0h3.1Z"/>
    <path class="cls-1" d="M-872.7,508.2c-1,.2-2.1.2-3.1,0h3.1Z"/>
    <path class="cls-1" d="M-801.3,504.2v6.6l-5.1,6.2h-267.8l-8.3-10v-2.8h13c2-.6,3.9-1.1,5.6-1.7,1.3-.4,2.5-.8,3.7-1.2,1.2-.5,2.5-.9,3.8-1.3,3.4-1.1,7.1-2,12-2.4,9.2-.7,16.7.3,23,2.6,2.4.9,4.5,1.8,6.9,2.7,2.1.8,4.4,1.2,6.7,1.3,1,0,2,0,2.9,0,2.2-.1,4.5-.5,6.5-1.3,2.1-.7,4-1.5,6-2.3,11-4.3,26.5-4.3,37.8-.1,2.2.8,4.2,1.8,6.6,2.5,1.9.6,4,1,6.1,1.2,1,0,2.1,0,3.1,0,2.2-.1,4.3-.5,6.2-1.2,2.5-.8,4.6-1.8,6.9-2.7,10.5-3.9,25.3-3.9,36.1-.1,2.5.9,4.7,1.9,7.3,2.8,2,.7,4.1,1.1,6.3,1.2,1,0,2.1,0,3.1,0,2.2-.1,4.3-.5,6.3-1.2,2.3-.8,4.4-1.7,6.6-2.6,9.3-3.5,22.2-3.9,32.4-1.4,1.8.4,3.5,1,5,1.6,1.8.7,3.4,1.5,5.4,2.2s4.2,1.2,7.3,1.4h8.3Z"/>
    <rect class="cls-1" x="-1072.1" y="513.3" width="261.6" height="34.8"/>
    <path class="cls-3" d="M-808.4,540.5v12.6h0c0,.1-.2.1-.2.1h-263.3c0,0,0-.2,0-.2l.8-3.7.2-1.1,1.6-7.6h261.1Z"/>
    <path class="cls-3" d="M-705.7,187.4l-3,10.8-92.6,329.4-5.1,18.1-2.1,7.5h0c0,.1-.2.1-.2.1l-12-3.4.5-1.7.4-1.5.3-1,1.5-5.1,1.2-4.4.9-3.1,5.5-19.7h0l1.4-5.1,87.1-310,3.6-12.7h5.7l7,2h0Z"/>
    <polygon class="cls-3" points="-1059.7 549.9 -1071.6 553.2 -1072 553.2 -1072 553.2 -1072.1 553 -1072.1 552.8 -1074.1 545.7 -1082.4 516.3 -1171.8 198.2 -1174.8 187.5 -1167.8 185.5 -1162.1 185.5 -1158.6 198.2 -1071.5 508.2 -1064.7 532.2 -1063.8 535.4 -1063.6 536.2 -1062.4 540.5 -1060.9 545.7 -1060.6 546.6 -1059.7 549.9"/>
    <line class="cls-2" x1="796.4" y1="480.8" x2="774.6" y2="480.8"/>
    <path class="cls-1" d="M836.3,433.3c-.7.1-1.4.1-2.1,0h2.1Z"/>
    <path class="cls-1" d="M884,433.3c-.8.1-1.5.1-2.3,0h2.3Z"/>
    <path class="cls-1" d="M931.7,433.3c-.8.1-1.5.1-2.3,0h2.3Z"/>
    <g>
      <path class="cls-3" d="M1115,528c-12.3,32.7-24.6,65-36.5,97.4-4.9,13.4-8.9,27.2-13.6,40.7-1.1,3-2.8,6.5-5.3,8.3-14.5,10.5-29.3,20.5-45.5,31.7-15.4-20.3-37.2-36.4-67-36.3-29.5,0-51.2,15.7-69.2,39.6-17.9-23.6-39.5-39.4-68.9-39.5-29.5,0-51.4,15.2-69.3,39.1-2.9-3.1-5-5.8-7.5-7.9-8.7-7.5-16.7-16.6-26.7-21.5-9.9-4.9-14-11.3-17.4-21-15-43.5-30.9-86.7-46.9-131.2,20-11.3,41.2-23.4,62.4-35.3,56-31.5,112-63.1,168.1-94.4,3-1.7,8.3-2.2,11.1-.6,76.5,42.8,152.9,85.9,229.2,129,1.2.7,2.1,1.6,2.9,2.2h0Z"/>
      <path class="cls-3" d="M1036.6,358.4h-45.4v-48.3h-85.3c-2.5-23.5-4.9-45.9-7.3-68.4h-41.4c-2.4,22.9-4.8,45.3-7.3,68.8h-86.1v48.8h-44.9c-2.5,32.2-4.9,63.3-7.5,96.3,8.2-4.5,14.3-8.3,20.9-11.3,6.5-3,9.1-7.2,9.2-14.5.1-11.5,1.6-23,2.3-34.6.4-5.9,2.6-8.4,9.1-8.4,83.3.2,166.6.2,249.9,0,7,0,9.1,2.8,9.4,9.2.5,11.9,1.5,23.7,2.5,35.6.3,3,.7,7.2,2.6,8.5,8.2,5.4,17,9.8,27.3,15.6-2.7-33.7-5.3-64.9-7.9-97.4ZM963.6,358h-171.1v-19.4h171.1v19.4Z"/>
      <path class="cls-3" d="M1154.9,731.2v26.7c-.2,0-.4,0-.6,0-16.7,1.1-28.4-7.3-38.8-18.4-.9-1-1.5-2.3-2.4-3.4-19-25.2-33.5-25.5-53-.9-25.2,31.6-60.8,31.8-86.4.7-3.8-4.6-7.7-9.1-12.1-13.1-8.1-7.4-20.5-7.6-28.7-.1-5.1,4.7-9.4,10.3-14,15.6-23,27-57.4,27.6-81.1,1.1-4.4-5-8.5-10.3-13.2-14.9-10-9.9-22.4-9.8-32.5.1-4.4,4.4-8.4,9.4-12.4,14.2-21.3,25.8-58.4,26.7-80.4.8-4.5-5.3-8.9-10.8-13.9-15.7-10-9.7-21.6-9.5-31.5.3-5.7,5.7-10.5,12.2-16.1,17.9-9.7,9.7-20.8,16.6-36,15.8h-.8s0-.2,0-.2l-.2-.8v-21.2c6.5-5.8,12.3-10.6,17.5-15.3,2.7-2.5,5.3-5,7.7-7.5,9.4-10.1,18.9-19.5,33.1-22.6,19.3-4.2,35.1,2.1,48.4,15.8,5.1,5.3,9.4,11.3,14.5,16.6,10.6,11,23.2,11.1,33.9.2,4.4-4.5,8.3-9.4,12.5-14.1,23.1-26.3,55.8-26.6,79.5-.9,4.7,5.1,8.9,10.8,13.9,15.7,10.2,10,22.3,9.9,32.5-.2,5.2-5.2,9.6-11.1,14.6-16.5,22.1-23.7,53.3-24.1,75.9-.9,5.4,5.5,9.9,11.8,15.4,17.2,10.4,10.5,22.8,10.5,33.2,0,4.9-5,9.2-10.6,13.9-15.7,23-25.1,56.4-24.5,78.8,1.1,3.8,4.4,7.2,9.3,11.3,13.5,4.6,4.7,10,8.4,17.7,9.2h0Z"/>
    </g>
  </g>
</svg>