<?xml version="1.0" encoding="UTF-8"?>
<svg xmlns="http://www.w3.org/2000/svg" version="1.1" xmlns:xlink="http://www.w3.org/1999/xlink"
  viewBox="0 0 1755.5 1000.8">
  <defs>
    <style> .cls-1 { fill: none; } .cls-1, .cls-2, .cls-3, .cls-4 { stroke-width: 0px; } .cls-2 {
      fill: red; } .cls-3 { fill: #333; } <!-- .cls-5 {
      display: none;
      opacity: .8;
      } --> .cls-4 { fill: #333; } </style>
  </defs>
  <g id="Calque_1" data-name="Calque 1" class="cls-5">
    <image width="861" height="1390" transform="translate(567.7 162.8) scale(.3)"
      xlink:href="../../../../Canal de Corinthe/mme-braemar-ancienne-dynastie-de-la-couronne-la-couronne-de-cunard-dynasty-majeste-de-la-couronne-norvegienne-et-dynastie-est-un-navire-de-croisiere-actuellement-avec-fred-olsen-jg9bnw.jpg" />
    <rect class="cls-2" x="716.4" y="393.1" width="2.2" height="12.4" />
  </g>
  <g id="Calque_2" data-name="Calque 2">
    <g>
      <path class="cls-3"
        d="M-827.4,439.8c-5.9,15.6-11.7,30.9-17.4,46.3-2.3,6.4-4.2,12.9-6.5,19.4-.5,1.5-1.3,3.1-2.5,4-6.9,5-14,9.8-21.6,15.1-7.3-9.6-17.7-17.3-31.9-17.3-14,0-24.3,7.5-32.9,18.8-8.5-11.2-18.8-18.8-32.8-18.8-14,0-24.5,7.2-33,18.6-1.4-1.5-2.4-2.8-3.6-3.8-4.2-3.5-7.9-7.9-12.7-10.2-4.7-2.3-6.7-5.4-8.3-10-7.1-20.7-14.7-41.3-22.3-62.4,9.5-5.4,19.6-11.1,29.7-16.8,26.6-15,53.3-30,80-44.9,1.4-.8,4-1,5.3-.3,36.4,20.4,72.7,40.9,109.1,61.4.5.3,1,.8,1.4,1h0Z" />
      <path class="cls-3"
        d="M-864.7,359.1h-21.6v-23h-40.6c-1.2-11.2-2.3-21.9-3.5-32.5h-19.7c-1.2,10.9-2.3,21.6-3.5,32.7h-41v23.2h-21.3c-1.2,15.3-2.3,30.1-3.6,45.8,3.9-2.1,6.8-3.9,9.9-5.4,3.1-1.4,4.3-3.4,4.4-6.9,0-5.5.8-11,1.1-16.4.2-2.8,1.3-4,4.3-4,39.6,0,79.3.1,118.9,0,3.3,0,4.3,1.3,4.5,4.4.2,5.7.7,11.3,1.2,16.9.1,1.4.3,3.4,1.2,4,3.9,2.6,8.1,4.7,13,7.4-1.3-16.1-2.5-30.9-3.8-46.3ZM-899.5,358.9h-81.4v-9.2h81.4v9.2Z" />
      <path class="cls-3"
        d="M-808.4,536.5v12.6h0c0,.1-.2.1-.2.1-7.9.5-13.5-3.5-18.5-8.7-.5-.5-.7-1.1-1.1-1.6-9-12-15.9-12.1-25.2-.5-12,15-28.9,15.1-41.1.3-1.8-2.2-3.7-4.3-5.8-6.2-3.9-3.5-9.8-3.6-13.6,0-2.4,2.2-4.5,4.9-6.7,7.4-11,12.9-27.3,13.1-38.6.5-2.1-2.4-4-4.9-6.3-7.1-4.8-4.7-10.7-4.7-15.5,0-2.1,2.1-4,4.5-5.9,6.8-10.1,12.3-27.8,12.7-38.3.4-2.2-2.5-4.2-5.2-6.6-7.5-4.8-4.6-10.3-4.5-15,.2-2.7,2.7-5,5.8-7.7,8.5-4.6,4.6-9.9,7.9-17.1,7.5h-.4s0,0,0,0v-.4c0,0,0-10.1,0-10.1,3.1-2.8,5.8-5,8.3-7.3,1.3-1.2,2.5-2.4,3.7-3.6,4.5-4.8,9-9.3,15.8-10.8,9.2-2,16.7,1,23,7.5,2.4,2.5,4.5,5.4,6.9,7.9,5.1,5.2,11.1,5.3,16.2.1,2.1-2.1,4-4.5,6-6.7,11-12.5,26.5-12.7,37.8-.4,2.2,2.5,4.2,5.1,6.6,7.5,4.8,4.8,10.6,4.7,15.4-.1,2.5-2.5,4.6-5.3,6.9-7.9,10.5-11.3,25.3-11.5,36.1-.5,2.5,2.6,4.7,5.6,7.3,8.2,5,5,10.8,5,15.8,0,2.3-2.4,4.4-5,6.6-7.5,10.9-12,26.8-11.7,37.5.5,1.8,2.1,3.4,4.4,5.4,6.4,2.2,2.2,4.8,4,8.4,4.4h0Z" />
    </g>
    <polygon class="cls-3"
      points="-1649.2 185.5 -1649.2 198.2 -1158.6 198.2 -1163.4 185.5 -1649.2 185.5" />
    <path class="cls-4" d="M-1004.9,508.2c-1,.2-2,.2-2.9,0h2.9Z" />
    <path class="cls-4" d="M-938.7,508.2c-1,.2-2.1.2-3.1,0h3.1Z" />
    <path class="cls-4" d="M-872.7,508.2c-1,.2-2.1.2-3.1,0h3.1Z" />
    <path class="cls-4"
      d="M-801.3,504.2v6.6l-5.1,6.2h-267.8l-8.3-10v-2.8h13c2-.6,3.9-1.1,5.6-1.7,1.3-.4,2.5-.8,3.7-1.2,1.2-.5,2.5-.9,3.8-1.3,3.4-1.1,7.1-2,12-2.4,9.2-.7,16.7.3,23,2.6,2.4.9,4.5,1.8,6.9,2.7,2.1.8,4.4,1.2,6.7,1.3,1,0,2,0,2.9,0,2.2-.1,4.5-.5,6.5-1.3,2.1-.7,4-1.5,6-2.3,11-4.3,26.5-4.3,37.8-.1,2.2.8,4.2,1.8,6.6,2.5,1.9.6,4,1,6.1,1.2,1,0,2.1,0,3.1,0,2.2-.1,4.3-.5,6.2-1.2,2.5-.8,4.6-1.8,6.9-2.7,10.5-3.9,25.3-3.9,36.1-.1,2.5.9,4.7,1.9,7.3,2.8,2,.7,4.1,1.1,6.3,1.2,1,0,2.1,0,3.1,0,2.2-.1,4.3-.5,6.3-1.2,2.3-.8,4.4-1.7,6.6-2.6,9.3-3.5,22.2-3.9,32.4-1.4,1.8.4,3.5,1,5,1.6,1.8.7,3.4,1.5,5.4,2.2s4.2,1.2,7.3,1.4h8.3Z" />
    <rect class="cls-4" x="-1072.1" y="513.3" width="261.6" height="34.8" />
    <path class="cls-3"
      d="M-808.4,540.5v12.6h0c0,.1-.2.1-.2.1h-263.3c0,0,0-.2,0-.2l.8-3.7.2-1.1,1.6-7.6h261.1Z" />
    <path class="cls-3"
      d="M-705.7,187.4l-3,10.8-92.6,329.4-5.1,18.1-2.1,7.5h0c0,.1-.2.1-.2.1l-12-3.4.5-1.7.4-1.5.3-1,1.5-5.1,1.2-4.4.9-3.1,5.5-19.7h0l1.4-5.1,87.1-310,3.6-12.7h5.7l7,2h0Z" />
    <polygon class="cls-3"
      points="-1059.7 549.9 -1071.6 553.2 -1072 553.2 -1072 553.2 -1072.1 553 -1072.1 552.8 -1074.1 545.7 -1082.4 516.3 -1171.8 198.2 -1174.8 187.5 -1167.8 185.5 -1162.1 185.5 -1158.6 198.2 -1071.5 508.2 -1064.7 532.2 -1063.8 535.4 -1063.6 536.2 -1062.4 540.5 -1060.9 545.7 -1060.6 546.6 -1059.7 549.9" />
    <g>
      <path class="cls-3"
        d="M88.4-127c.2.5.5.7.9.7s.7-.2.9-.7l15.2-62.8c.4-1.6,1.4-2.4,3-2.4h21.1c.8,0,1.4.3,2,.9s.9,1.2.9,2v94.6c0,.8-.3,1.4-.9,2s-1.2.9-2,.9h-12.6c-.8,0-1.4-.3-2-.9-.6-.6-.9-1.2-.9-2v-54c0-.5-.2-.8-.5-.9-.3,0-.6,0-.8.6l-14.6,54.8c-.4,1.6-1.4,2.4-3,2.4h-11.3c-1.6,0-2.6-.8-3-2.4l-14.3-54.8c-.2-.5-.5-.7-.8-.6-.3,0-.5.4-.5.9v54c0,.8-.3,1.4-.9,2-.6.6-1.2.9-2,.9h-12.6c-.8,0-1.4-.3-2-.9-.6-.6-.9-1.2-.9-2v-94.6c0-.8.3-1.4.9-2,.6-.6,1.2-.9,2-.9h21.2c1.6,0,2.6.8,3,2.4l14.6,62.8Z" />
      <path class="cls-3"
        d="M194.2-121.7c0-3.1-1.1-5.4-3.4-7.1-2.2-1.7-6.1-3.1-11.5-4.4-4.5-1-8.7-2.2-12.6-3.8-3.9-1.6-7.3-3.6-10.2-5.9-2.9-2.4-5.1-5.3-6.8-8.7-1.7-3.4-2.5-7.4-2.5-12s.8-8.1,2.4-11.8c1.6-3.7,3.9-6.9,6.9-9.6,3-2.7,6.4-4.9,10.4-6.5,4-1.6,8.3-2.4,13.1-2.4s9.2.8,13.3,2.4c4.1,1.6,7.5,3.7,10.5,6.5,2.9,2.7,5.2,5.9,6.8,9.6,1.6,3.7,2.4,7.6,2.4,11.8v2.2c0,.8-.3,1.4-.9,2-.6.6-1.2.9-2,.9h-14.5c-.8,0-1.4-.3-2-.9-.6-.6-.9-1.2-.9-2v-2.2c0-2.9-1.1-5.4-3.3-7.5-2.2-2.2-5.4-3.2-9.5-3.2s-7.1,1-9.2,2.9c-2.2,1.9-3.2,4.3-3.2,7.2s1.2,5,3.6,6.7c2.4,1.7,5.4,2.9,9.2,3.7,5,1.1,9.6,2.4,13.8,3.9,4.3,1.6,7.9,3.6,11,6.2,3.1,2.5,5.5,5.6,7.2,9.2,1.8,3.6,2.7,7.9,2.7,12.9s-.9,8.9-2.6,12.8c-1.7,3.8-4.1,7.1-7.2,9.9-3.1,2.8-6.8,4.9-11.1,6.5-4.3,1.5-9,2.3-14,2.3s-9.5-.8-13.7-2.4c-4.2-1.6-7.7-3.8-10.8-6.7-3-2.8-5.4-6.1-7.1-10-1.7-3.8-2.6-7.9-2.6-12.3v-4.3c0-.8.3-1.4.9-2s1.2-.9,2-.9h14.5c.8,0,1.4.3,2,.9s.9,1.2.9,2v4.3c0,3.3,1.2,6.1,3.6,8.4,2.4,2.2,5.8,3.4,10.3,3.4s7.7-1.1,10.3-3.4c2.6-2.2,3.9-5,3.9-8.4Z" />
      <path class="cls-3"
        d="M298.3-192.2c4,0,7.7.8,11.2,2.3,3.4,1.5,6.4,3.6,9,6.2,2.5,2.6,4.5,5.7,6,9.3,1.4,3.6,2.2,7.4,2.2,11.4s-.7,6.4-2.1,9.8c-1.4,3.4-3.1,6.1-5.2,8.2s-1,1.8,0,2.6c1.1,1.1,2.2,2.3,3.3,3.7,1.1,1.4,2,3,2.7,4.7.8,1.7,1.4,3.5,1.8,5.4.4,1.9.6,3.8.6,5.6,0,4.7-.7,8.9-2.1,12.8-1.4,3.8-3.4,7.1-5.9,9.7-2.6,2.7-5.7,4.8-9.3,6.2-3.6,1.5-7.6,2.2-12,2.2h-33.8c-.8,0-1.4-.3-2-.9-.6-.6-.9-1.2-.9-2v-94.6c0-.8.3-1.4.9-2,.6-.6,1.2-.9,2-.9h33.8ZM297.5-153.7c2.5,0,4.7-.9,6.6-2.8,1.9-1.9,2.9-4,2.9-6.5s-1-4.6-2.9-6.5c-1.9-1.8-4.1-2.7-6.6-2.7h-14.9c-1,0-1.4.5-1.4,1.4v15.6c0,1,.5,1.4,1.4,1.4h14.9ZM282.6-133.6c-1,0-1.4.5-1.4,1.4v18.8c0,1,.5,1.4,1.4,1.4h14.9c3.1,0,5.5-1.1,7.3-3.3,1.8-2.2,2.7-4.7,2.7-7.6s-.9-5.3-2.7-7.5c-1.8-2.2-4.3-3.3-7.3-3.3h-14.9Z" />
      <path class="cls-3"
        d="M362.1-132c-1,0-1.4.5-1.4,1.4v35.8c0,.8-.3,1.4-.9,2s-1.2.9-2,.9h-14.3c-.8,0-1.4-.3-2-.9-.6-.6-.9-1.2-.9-2v-94.6c0-.8.3-1.4.9-2,.6-.6,1.2-.9,2-.9h31.5c4.1,0,8,.8,11.7,2.4,3.7,1.6,6.9,3.7,9.6,6.5s4.9,5.9,6.5,9.6c1.6,3.7,2.4,7.6,2.4,11.7s-1.2,10.3-3.6,14.3c-2.4,4-6.2,7.7-11.3,11.1-1.1.8-1.6,1.5-1.6,2.2s.2,1.5.7,2.6l15.3,35.8c.5,1.1.5,2,0,2.9-.4.9-1.4,1.4-2.8,1.4h-14.8c-1.1,0-2-.3-2.7-.8-.6-.5-1.1-1.2-1.5-2.1l-14.6-35.4c-.2-.4-.5-.8-.9-1.2-.4-.4-1-.6-1.7-.6h-3.7ZM362.1-172.2c-1,0-1.4.5-1.4,1.4v17.2c0,1,.5,1.4,1.4,1.4h12.9c2.8,0,5.1-1,7.1-2.9s2.9-4.3,2.9-7.1-1-5.1-2.9-7.1c-2-2-4.3-2.9-7.1-2.9h-12.9Z" />
      <path class="cls-3"
        d="M462.8-108.8c-.2-.6-.4-1.1-.7-1.5-.3-.4-.8-.6-1.4-.6h-21.8c-1.1,0-1.9.7-2.2,2.2l-4,14.8c-.3,1.4-1.2,2.2-2.7,2.2h-15.1c-1.1,0-2-.3-2.4-.9-.5-.6-.6-1.3-.4-1.9l25.7-95.3c.3-1.4,1.2-2.2,2.7-2.2h19.2c1.5,0,2.4.7,2.7,2.2l25.5,95.3c.2.7,0,1.3-.4,1.9-.5.6-1.3.9-2.4.9h-15.1c-1.3,0-2.2-.7-2.7-2.2l-4.4-14.8ZM456.5-131c1.1,0,1.4-.5,1.1-1.6l-6.9-34.4c0-.4-.3-.6-.7-.6h-.3c-.4,0-.6.2-.7.6l-6.9,34.4c-.3,1.1,0,1.6,1.1,1.6h13.2Z" />
      <path class="cls-3"
        d="M517.9-113.4c0,1,.5,1.4,1.4,1.4h34c.8,0,1.4.3,2,.9s.9,1.2.9,2v14.3c0,.8-.3,1.4-.9,2s-1.2.9-2,.9h-52.6c-.8,0-1.4-.3-2-.9-.6-.6-.9-1.2-.9-2v-94.6c0-.8.3-1.4.9-2,.6-.6,1.2-.9,2-.9h52c.8,0,1.4.3,2,.9.6.6.9,1.2.9,2v14.3c0,.8-.3,1.4-.9,2-.6.6-1.2.9-2,.9h-33.4c-1,0-1.4.5-1.4,1.4v17.2c0,1,.5,1.4,1.4,1.4h32.3c.8,0,1.4.3,2,.9s.9,1.2.9,2v14.3c0,.8-.3,1.4-.9,2s-1.2.9-2,.9h-32.3c-1,0-1.4.5-1.4,1.4v17.2Z" />
      <path class="cls-3"
        d="M612.9-127c.2.5.5.7.9.7s.7-.2.9-.7l15.2-62.8c.4-1.6,1.4-2.4,3-2.4h21.1c.8,0,1.4.3,2,.9s.9,1.2.9,2v94.6c0,.8-.3,1.4-.9,2s-1.2.9-2,.9h-12.6c-.8,0-1.4-.3-2-.9-.6-.6-.9-1.2-.9-2v-54c0-.5-.2-.8-.5-.9-.3,0-.6,0-.8.6l-14.6,54.8c-.4,1.6-1.4,2.4-3,2.4h-11.3c-1.6,0-2.6-.8-3-2.4l-14.3-54.8c-.2-.5-.5-.7-.8-.6-.3,0-.5.4-.5.9v54c0,.8-.3,1.4-.9,2-.6.6-1.2.9-2,.9h-12.6c-.8,0-1.4-.3-2-.9-.6-.6-.9-1.2-.9-2v-94.6c0-.8.3-1.4.9-2,.6-.6,1.2-.9,2-.9h21.2c1.6,0,2.6.8,3,2.4l14.6,62.8Z" />
      <path class="cls-3"
        d="M717.5-108.8c-.2-.6-.4-1.1-.7-1.5-.3-.4-.8-.6-1.4-.6h-21.8c-1.1,0-1.9.7-2.2,2.2l-4,14.8c-.3,1.4-1.2,2.2-2.7,2.2h-15.1c-1.1,0-2-.3-2.4-.9-.5-.6-.6-1.3-.4-1.9l25.7-95.3c.3-1.4,1.2-2.2,2.7-2.2h19.2c1.5,0,2.4.7,2.7,2.2l25.5,95.3c.2.7,0,1.3-.4,1.9-.5.6-1.3.9-2.4.9h-15.1c-1.3,0-2.2-.7-2.7-2.2l-4.4-14.8ZM711.1-131c1.1,0,1.4-.5,1.1-1.6l-6.9-34.4c0-.4-.3-.6-.7-.6h-.3c-.4,0-.6.2-.7.6l-6.9,34.4c-.3,1.1,0,1.6,1.1,1.6h13.2Z" />
      <path class="cls-3"
        d="M773.9-132c-1,0-1.4.5-1.4,1.4v35.8c0,.8-.3,1.4-.9,2s-1.2.9-2,.9h-14.3c-.8,0-1.4-.3-2-.9-.6-.6-.9-1.2-.9-2v-94.6c0-.8.3-1.4.9-2,.6-.6,1.2-.9,2-.9h31.5c4.1,0,8,.8,11.7,2.4,3.7,1.6,6.9,3.7,9.6,6.5,2.7,2.7,4.9,5.9,6.5,9.6,1.6,3.7,2.4,7.6,2.4,11.7s-1.2,10.3-3.6,14.3c-2.4,4-6.2,7.7-11.3,11.1-1.1.8-1.6,1.5-1.6,2.2s.2,1.5.7,2.6l15.3,35.8c.5,1.1.5,2,0,2.9-.4.9-1.4,1.4-2.8,1.4h-14.8c-1.1,0-2-.3-2.7-.8-.6-.5-1.1-1.2-1.5-2.1l-14.6-35.4c-.2-.4-.5-.8-.9-1.2-.4-.4-1-.6-1.7-.6h-3.7ZM773.9-172.2c-1,0-1.4.5-1.4,1.4v17.2c0,1,.5,1.4,1.4,1.4h12.9c2.8,0,5.1-1,7.1-2.9s2.9-4.3,2.9-7.1-1-5.1-2.9-7.1c-2-2-4.3-2.9-7.1-2.9h-12.9Z" />
    </g>
    <polyline class="cls-3"
      points="1483.9 -111.9 1377 -111.9 1369.9 -138.6 1309.9 -365.8 973.3 -365.8 973.3 -392.5 1302.8 -392.5 1302.8 -392.5 1330.4 -392.5 1332.8 -383.3 1397.6 -138.6 1570.7 -138.6 1635.5 -383.3 1637.9 -392.5 1665.5 -392.5 1665.5 -392.5 1995 -392.5 1995 -365.8 1658.5 -365.8 1598.4 -138.6 1591.3 -111.9 1483.9 -111.9" />
    <g>
      <g>
        <path class="cls-3"
          d="M1875.1,358.2c.2.5.5.8.9.8s.7-.3.9-.8l16.2-67c.4-1.7,1.5-2.6,3.2-2.6h22.5c.8,0,1.5.3,2.1.9.6.6.9,1.3.9,2.1v101c0,.8-.3,1.5-.9,2.1-.6.6-1.3.9-2.1.9h-13.5c-.8,0-1.5-.3-2.1-.9-.6-.6-.9-1.3-.9-2.1v-57.7c0-.5-.2-.8-.5-.9-.4-.1-.6.1-.8.6l-15.6,58.5c-.4,1.7-1.5,2.6-3.2,2.6h-12.1c-1.7,0-2.8-.9-3.2-2.6l-15.3-58.5c-.2-.5-.5-.7-.8-.6-.4.1-.5.4-.5.9v57.7c0,.8-.3,1.5-.9,2.1-.6.6-1.3.9-2.1.9h-13.5c-.8,0-1.5-.3-2.1-.9-.6-.6-.9-1.3-.9-2.1v-101c0-.8.3-1.5.9-2.1.6-.6,1.3-.9,2.1-.9h22.7c1.7,0,2.8.9,3.2,2.6l15.6,67Z" />
        <path class="cls-3"
          d="M1988.1,363.8c0-3.3-1.2-5.8-3.6-7.6-2.4-1.8-6.5-3.3-12.3-4.7-4.8-1-9.3-2.4-13.5-4.1-4.2-1.7-7.8-3.8-10.9-6.4-3.1-2.5-5.5-5.6-7.3-9.3-1.8-3.6-2.7-7.9-2.7-12.8s.9-8.7,2.6-12.6c1.7-3.9,4.2-7.3,7.3-10.3,3.2-2.9,6.9-5.2,11.1-6.9,4.2-1.7,8.9-2.5,14-2.5s9.8.8,14.2,2.5c4.3,1.7,8.1,4,11.2,6.9,3.1,2.9,5.5,6.3,7.3,10.3,1.7,3.9,2.6,8.1,2.6,12.6v2.3c0,.8-.3,1.5-.9,2.1-.6.6-1.3.9-2.1.9h-15.5c-.8,0-1.5-.3-2.1-.9-.6-.6-.9-1.3-.9-2.1v-2.3c0-3.1-1.2-5.7-3.5-8-2.3-2.3-5.7-3.4-10.1-3.4s-7.6,1-9.9,3.1c-2.3,2-3.4,4.6-3.4,7.7s1.3,5.3,3.8,7.1c2.5,1.8,5.8,3.1,9.8,3.9,5.3,1.1,10.2,2.5,14.8,4.2,4.5,1.7,8.4,3.9,11.7,6.6,3.3,2.7,5.8,6,7.7,9.9,1.9,3.9,2.8,8.5,2.8,13.8s-.9,9.5-2.8,13.6c-1.8,4.1-4.4,7.6-7.7,10.6-3.3,3-7.3,5.3-11.9,6.9-4.6,1.6-9.6,2.4-15,2.4s-10.2-.9-14.6-2.6-8.3-4.1-11.5-7.1c-3.2-3-5.7-6.6-7.6-10.6-1.8-4.1-2.8-8.5-2.8-13.2v-4.6c0-.8.3-1.5.9-2.1s1.3-.9,2.1-.9h15.5c.8,0,1.5.3,2.1.9s.9,1.3.9,2.1v4.6c0,3.6,1.3,6.6,3.8,9,2.5,2.4,6.2,3.6,11,3.6s8.3-1.2,11-3.6c2.8-2.4,4.1-5.4,4.1-9Z" />
        <path class="cls-3"
          d="M2099.2,288.5c4.3,0,8.3.8,11.9,2.4,3.7,1.6,6.9,3.9,9.6,6.7,2.7,2.8,4.8,6.1,6.4,9.9,1.5,3.8,2.3,7.9,2.3,12.2s-.7,6.9-2.2,10.5c-1.5,3.6-3.3,6.6-5.6,8.8s-1,1.9,0,2.8c1.2,1.1,2.4,2.4,3.5,4,1.1,1.5,2.1,3.2,2.9,5.1.8,1.8,1.5,3.8,1.9,5.8.5,2,.7,4,.7,6,0,5-.7,9.5-2.2,13.6-1.5,4.1-3.6,7.6-6.4,10.4-2.8,2.9-6.1,5.1-9.9,6.7-3.9,1.6-8.2,2.4-12.9,2.4h-36.1c-.8,0-1.5-.3-2.1-.9-.6-.6-.9-1.3-.9-2.1v-101c0-.8.3-1.5.9-2.1.6-.6,1.3-.9,2.1-.9h36.1ZM2098.4,329.7c2.7,0,5-1,7-3,2-2,3.1-4.3,3.1-7s-1-4.9-3.1-6.9c-2-1.9-4.4-2.9-7-2.9h-15.9c-1,0-1.5.5-1.5,1.5v16.7c0,1,.5,1.5,1.5,1.5h15.9ZM2082.5,351.1c-1,0-1.5.5-1.5,1.5v20.1c0,1,.5,1.5,1.5,1.5h15.9c3.3,0,5.9-1.2,7.8-3.5,1.9-2.3,2.9-5.1,2.9-8.1s-1-5.6-2.9-8c-1.9-2.3-4.5-3.5-7.8-3.5h-15.9Z" />
        <path class="cls-3"
          d="M2167.3,352.8c-1,0-1.5.5-1.5,1.5v38.3c0,.8-.3,1.5-.9,2.1-.6.6-1.3.9-2.1.9h-15.3c-.8,0-1.5-.3-2.1-.9-.6-.6-.9-1.3-.9-2.1v-101c0-.8.3-1.5.9-2.1.6-.6,1.3-.9,2.1-.9h33.7c4.4,0,8.5.8,12.5,2.5,3.9,1.7,7.3,4,10.3,6.9,2.9,2.9,5.2,6.3,6.9,10.3,1.7,3.9,2.5,8.1,2.5,12.5s-1.3,11-3.8,15.2c-2.6,4.2-6.6,8.2-12.1,11.9-1.1.8-1.7,1.6-1.7,2.3s.3,1.6.8,2.8l16.4,38.3c.5,1.1.5,2.2,0,3.1-.5,1-1.5,1.5-3,1.5h-15.8c-1.2,0-2.2-.3-2.8-.8-.7-.6-1.2-1.3-1.6-2.2l-15.6-37.8c-.2-.4-.5-.8-.9-1.3-.4-.5-1-.7-1.8-.7h-4ZM2167.3,309.9c-1,0-1.5.5-1.5,1.5v18.4c0,1,.5,1.5,1.5,1.5h13.8c3,0,5.5-1,7.6-3.1s3.1-4.6,3.1-7.6-1-5.5-3.1-7.6c-2.1-2.1-4.6-3.1-7.6-3.1h-13.8Z" />
        <path class="cls-3"
          d="M2274.9,377.6c-.2-.6-.5-1.1-.8-1.6-.3-.5-.8-.7-1.5-.7h-23.3c-1.2,0-2,.8-2.3,2.3l-4.3,15.8c-.3,1.5-1.3,2.3-2.9,2.3h-16.1c-1.2,0-2.1-.3-2.6-1-.5-.7-.7-1.4-.5-2.1l27.4-101.8c.3-1.5,1.3-2.3,2.9-2.3h20.5c1.6,0,2.6.8,2.9,2.3l27.2,101.8c.2.7,0,1.4-.5,2.1-.5.7-1.4,1-2.6,1h-16.1c-1.4,0-2.4-.8-2.9-2.3l-4.7-15.8ZM2268.2,353.9c1.1,0,1.5-.6,1.2-1.7l-7.3-36.7c-.1-.4-.4-.6-.8-.6h-.3c-.4,0-.7.2-.8.6l-7.3,36.7c-.3,1.1.1,1.7,1.2,1.7h14.1Z" />
        <path class="cls-3"
          d="M2333.7,372.7c0,1,.5,1.5,1.5,1.5h36.3c.8,0,1.5.3,2.1.9.6.6.9,1.3.9,2.1v15.3c0,.8-.3,1.5-.9,2.1-.6.6-1.3.9-2.1.9h-56.2c-.8,0-1.5-.3-2.1-.9-.6-.6-.9-1.3-.9-2.1v-101c0-.8.3-1.5.9-2.1.6-.6,1.3-.9,2.1-.9h55.6c.8,0,1.5.3,2.1.9.6.6.9,1.3.9,2.1v15.3c0,.8-.3,1.5-.9,2.1-.6.6-1.3.9-2.1.9h-35.7c-1,0-1.5.5-1.5,1.5v18.4c0,1,.5,1.5,1.5,1.5h34.4c.8,0,1.5.3,2.1.9.6.6.9,1.3.9,2.1v15.3c0,.8-.3,1.5-.9,2.1-.6.6-1.3.9-2.1.9h-34.4c-1,0-1.5.5-1.5,1.5v18.4Z" />
        <path class="cls-3"
          d="M2435.2,358.2c.2.5.5.8.9.8s.7-.3.9-.8l16.2-67c.4-1.7,1.5-2.6,3.2-2.6h22.5c.8,0,1.5.3,2.1.9.6.6.9,1.3.9,2.1v101c0,.8-.3,1.5-.9,2.1-.6.6-1.3.9-2.1.9h-13.5c-.8,0-1.5-.3-2.1-.9-.6-.6-.9-1.3-.9-2.1v-57.7c0-.5-.2-.8-.5-.9-.4-.1-.6.1-.8.6l-15.6,58.5c-.4,1.7-1.5,2.6-3.2,2.6h-12.1c-1.7,0-2.8-.9-3.2-2.6l-15.3-58.5c-.2-.5-.5-.7-.8-.6-.4.1-.5.4-.5.9v57.7c0,.8-.3,1.5-.9,2.1-.6.6-1.3.9-2.1.9h-13.5c-.8,0-1.5-.3-2.1-.9-.6-.6-.9-1.3-.9-2.1v-101c0-.8.3-1.5.9-2.1.6-.6,1.3-.9,2.1-.9h22.7c1.7,0,2.8.9,3.2,2.6l15.6,67Z" />
        <path class="cls-3"
          d="M2546.8,377.6c-.2-.6-.5-1.1-.8-1.6-.3-.5-.8-.7-1.5-.7h-23.3c-1.2,0-2,.8-2.3,2.3l-4.3,15.8c-.3,1.5-1.3,2.3-2.9,2.3h-16.1c-1.2,0-2.1-.3-2.6-1-.5-.7-.7-1.4-.5-2.1l27.4-101.8c.3-1.5,1.3-2.3,2.9-2.3h20.5c1.6,0,2.6.8,2.9,2.3l27.2,101.8c.2.7,0,1.4-.5,2.1-.5.7-1.4,1-2.6,1h-16.1c-1.4,0-2.4-.8-2.9-2.3l-4.7-15.8ZM2540,353.9c1.1,0,1.5-.6,1.2-1.7l-7.3-36.7c-.1-.4-.4-.6-.8-.6h-.3c-.4,0-.7.2-.8.6l-7.3,36.7c-.3,1.1.1,1.7,1.2,1.7h14.1Z" />
        <path class="cls-3"
          d="M2607.1,352.8c-1,0-1.5.5-1.5,1.5v38.3c0,.8-.3,1.5-.9,2.1-.6.6-1.3.9-2.1.9h-15.3c-.8,0-1.5-.3-2.1-.9-.6-.6-.9-1.3-.9-2.1v-101c0-.8.3-1.5.9-2.1.6-.6,1.3-.9,2.1-.9h33.7c4.4,0,8.5.8,12.5,2.5,3.9,1.7,7.3,4,10.3,6.9,2.9,2.9,5.2,6.3,6.9,10.3,1.7,3.9,2.5,8.1,2.5,12.5s-1.3,11-3.8,15.2c-2.6,4.2-6.6,8.2-12.1,11.9-1.1.8-1.7,1.6-1.7,2.3s.3,1.6.8,2.8l16.4,38.3c.5,1.1.5,2.2,0,3.1-.5,1-1.5,1.5-3,1.5h-15.8c-1.2,0-2.2-.3-2.8-.8-.7-.6-1.2-1.3-1.6-2.2l-15.6-37.8c-.2-.4-.5-.8-.9-1.3-.4-.5-1-.7-1.8-.7h-4ZM2607.1,309.9c-1,0-1.5.5-1.5,1.5v18.4c0,1,.5,1.5,1.5,1.5h13.8c3,0,5.5-1,7.6-3.1s3.1-4.6,3.1-7.6-1-5.5-3.1-7.6c-2.1-2.1-4.6-3.1-7.6-3.1h-13.8Z" />
        <path class="cls-3"
          d="M2749.6,289.4c.6.6.9,1.3.9,2.1v101c0,.8-.3,1.5-.9,2.1-.6.6-1.3.9-2.1.9h-15.2c-.8,0-1.5-.3-2.1-.9-.6-.6-.9-1.3-.9-2.1v-73.5c0-1-.4-1.6-1.1-1.8-.7-.2-1.3,0-1.8.5l-23.7,23.6c-.9.9-2,1.1-3.3.6-1.3-.5-1.9-1.5-1.9-3.1v-15.3c0-1.2.1-2.4.4-3.4.3-1.1.9-2.2,2.1-3.3l23-24.8c.7-.8,1.7-1.6,2.9-2.4,1.2-.8,2.8-1.2,4.7-1.2h17c.8,0,1.5.3,2.1.9Z" />
        <path class="cls-3"
          d="M2801.3,377.3c3.6,0,6.7-.7,9.3-2.2,2.6-1.5,4.5-4,5.6-7.6.8-2.4,1.2-5.3,1.2-8.6s-.4-1.8-1.2-2.1c-.8-.3-1.6-.2-2.4,0-1.1.4-2.9.9-5.4,1.5-2.4.6-4.8.8-7.2.8-4.5,0-8.6-.8-12.5-2.5-3.8-1.7-7.2-4-10.1-7-2.9-3-5.2-6.4-7-10.4-1.7-4-2.8-8.3-3.1-12.9-.1-1.4-.2-2.6-.2-3.6s0-2.3.2-3.9c.2-4.5,1.2-8.7,2.9-12.6,1.7-3.9,4.1-7.3,7-10.2s6.3-5.2,10.3-6.9c3.9-1.7,8.1-2.5,12.6-2.5s9.2.9,13.2,2.6c4,1.7,7.5,4.1,10.5,7.1,3,3,5.4,6.5,7.3,10.6,1.9,4,3.1,8.3,3.6,12.9.4,3.3.7,6.8.8,10.6.2,3.8.2,7.6.2,11.5s0,7.7-.2,11.6-.4,7.3-.8,10.5c-.5,4.6-1.7,8.9-3.6,12.9-1.9,4-4.3,7.6-7.3,10.6-3,3-6.4,5.4-10.3,7.1-3.9,1.7-8.2,2.6-12.9,2.6s-9.2-.8-13.3-2.3c-4.1-1.5-7.6-3.6-10.6-6.4-3-2.7-5.4-5.9-7.1-9.6-1.7-3.7-2.6-7.7-2.6-11.9s.3-1.5.9-2.1c.6-.6,1.3-.9,2.1-.9h12.4c2.3,0,3.8,1,4.3,3.1.6,2.7,2,5,4.1,7,2.1,2,5.2,3.1,9.4,3.1ZM2814.6,318.5c-.3-3.6-1.6-6.5-3.8-8.7-2.2-2.2-5.2-3.4-8.7-3.4s-6.5,1.1-8.7,3.4-3.5,5.2-3.8,8.7c-.2,1.7-.3,3.2-.3,4.3s.1,2.5.3,4.1c.4,3.6,1.7,6.6,3.9,9,2.2,2.4,5.1,3.7,8.6,3.7s6.5-1.2,8.6-3.7c2.2-2.5,3.5-5.5,3.9-9,.2-1.6.3-3,.3-4.1s-.1-2.5-.3-4.3Z" />
        <path class="cls-3"
          d="M2886.6,324.3c4.7,0,9.1.9,13.2,2.7,4.1,1.8,7.8,4.2,10.9,7.3,3.1,3.1,5.6,6.7,7.3,10.9,1.8,4.1,2.7,8.5,2.7,13.2v5.4c0,4.7-.9,9.1-2.7,13.2-1.8,4.1-4.2,7.6-7.3,10.6-3.1,3-6.7,5.4-10.9,7.1s-8.5,2.6-13.2,2.6-9-.9-12.9-2.6c-3.9-1.7-7.4-4.1-10.3-7.1-3-3-5.4-6.5-7.3-10.6-1.9-4-3.1-8.3-3.6-12.9-.4-3.2-.7-6.7-.9-10.5-.2-3.8-.3-7.7-.3-11.6s0-7.7.3-11.5c.2-3.8.5-7.3.9-10.6.5-4.6,1.7-8.9,3.5-12.9,1.8-4,4.2-7.6,7.1-10.6,2.9-3,6.3-5.4,10.2-7.1,3.9-1.7,8.1-2.6,12.6-2.6s8.3.7,12.2,2.1c4,1.4,7.5,3.4,10.6,6,3.1,2.6,5.6,5.7,7.5,9.4,1.9,3.7,2.8,7.8,2.8,12.2s-.3,1.5-.9,2.1c-.6.6-1.3.9-2.1.9h-13c-2.3,0-3.8-1-4.3-3.1-.6-2.5-1.9-4.8-4-6.8-2-2-5-3-8.9-3s-5.2.6-7.1,1.8c-1.9,1.2-3.4,2.9-4.5,5.1-1.5,3-2.3,6.6-2.3,11s.4,1.9,1.1,2.2c.8.4,1.6.3,2.4-.2,1-.5,2.5-1,4.6-1.6,2-.6,4.2-.8,6.6-.8ZM2872.9,364.1c.3,4,1.7,7.2,4.1,9.6,2.4,2.4,5.6,3.6,9.6,3.6s7.2-1.2,9.6-3.6c2.4-2.4,3.7-5.6,4.1-9.6.1-1.9.1-3.9,0-6-.3-4-1.7-7.3-4.1-9.9-2.4-2.6-5.6-3.9-9.6-3.9s-7.2,1.3-9.6,3.9c-2.4,2.6-3.8,5.9-4.1,9.9-.1,2-.1,4,0,6Z" />
        <path class="cls-3"
          d="M3017.9,345.8c0-2.5-.8-4.7-2.5-6.4-1.7-1.7-4.2-2.6-7.4-2.6s-5.9.9-7.8,2.7c-1.9,1.8-2.9,4-2.9,6.5v46.7c0,.8-.3,1.5-.9,2.1-.6.6-1.3.9-2.1.9h-13.8c-.8,0-1.5-.3-2.1-.9s-.9-1.3-.9-2.1v-46.8c0-2.5-.8-4.7-2.5-6.4-1.7-1.7-4.2-2.6-7.4-2.6s-5.9.8-7.8,2.4c-1.9,1.6-2.9,3.6-2.9,6v47.5c0,.8-.3,1.5-.9,2.1s-1.3.9-2.1.9h-13.8c-.8,0-1.5-.3-2.1-.9s-.9-1.3-.9-2.1v-70.4c0-.8.3-1.5.9-2.1.6-.6,1.3-.9,2.1-.9h7.7c1.1,0,2,.4,2.8,1.1.6.6,1.2,1.3,1.7,1.9.5.7,1.3,1,2.4,1s2.2-.3,3.2-.9c1-.6,2.1-1.2,3.4-1.9,1.2-.7,2.6-1.3,4.1-1.9,1.5-.6,3.4-.9,5.7-.9,3.6,0,6.5.6,8.9,1.7,2.3,1.1,4.5,2.4,6.6,4,2.1,1.6,4.4,1.6,6.9,0,2-1.4,4.4-2.7,7-3.9,2.7-1.2,5.8-1.8,9.3-1.8s7.7.7,11.2,2.2c3.5,1.5,6.5,3.5,9,6,2.5,2.6,4.5,5.6,6,9,1.4,3.5,2.1,7.2,2.1,11.2v46.7c0,.8-.3,1.5-.9,2.1-.6.6-1.3.9-2.1.9h-13.8c-.8,0-1.5-.3-2.1-.9s-.9-1.3-.9-2.1v-46.8Z" />
        <path class="cls-3"
          d="M3120.3,372.4c-.6-1.2-1.2-1.2-1.8,0l-11.9,21.7c-.2.4-.5.8-1,1.1s-1.3.5-2.4.5h-15.5c-1.4,0-2.4-.5-2.9-1.5-.5-1-.4-2.2.5-3.5l20.4-33.1c.4-.6.6-1.1.7-1.6,0-.5-.2-1-.7-1.8l-17.8-30c-.8-1.3-1-2.5-.5-3.5.5-1,1.5-1.5,2.9-1.5h14.2c1.1,0,1.9.2,2.4.5.5.3.8.7,1,1.1l10.6,19.1c.6,1.2,1.2,1.2,1.8,0l10.6-19.1c.2-.4.5-.8,1-1.1.5-.3,1.2-.5,2.4-.5h14.2c1.4,0,2.4.5,2.9,1.5.5,1,.4,2.2-.5,3.5l-18.1,30c-.5.7-.7,1.3-.7,1.8,0,.5.3,1,.7,1.6l20.2,33.1c.8,1.3,1,2.5.5,3.5-.5,1-1.5,1.5-2.9,1.5h-15.5c-1.1,0-1.9-.2-2.4-.5-.5-.3-.8-.7-1-1.1l-11.5-21.7Z" />
        <path class="cls-3"
          d="M3221.5,321.3c0,.8-.3,1.5-.9,2.1-.6.6-1.3.9-2.1.9h-14.5c-.8,0-1.5-.3-2.1-.9s-.9-1.3-.9-2.1v-2.4c0-4.5.9-8.7,2.6-12.6,1.7-3.9,4.1-7.3,7-10.2,3-2.9,6.4-5.2,10.3-6.8,3.9-1.6,8.1-2.4,12.6-2.4s8.7.8,12.6,2.4c3.9,1.6,7.3,3.9,10.3,6.8,2.9,2.9,5.2,6.3,6.9,10.2,1.7,3.9,2.5,8.1,2.5,12.6s-.9,8.4-2.6,12.2c-1.7,3.9-4,7.3-6.9,10.4l-28.8,30.5c-.5.5-.7,1.1-.6,1.9.1.8.8,1.1,2.1,1.1h33.8c.8,0,1.5.3,2.1.9s.9,1.3.9,2.1v14.5c0,.8-.3,1.5-.9,2.1-.6.6-1.3.9-2.1.9h-60c-.8,0-1.5-.3-2.1-.9-.6-.6-.9-1.3-.9-2.1v-18.1c0-1.1.2-2,.5-2.5.3-.6.6-1,.9-1.3l39.6-42.1c.8-.9,1.7-2.4,2.8-4.4,1-2,1.5-3.9,1.5-5.5,0-3.1-1-5.7-2.9-7.9-1.9-2.2-4.6-3.3-8.1-3.3s-6.9,1-9.2,3.1c-2.2,2-3.4,4.7-3.4,8.1v2.6Z" />
        <path class="cls-3"
          d="M3299.7,363.8c0,4,1.2,7.1,3.6,9.3,2.4,2.2,5.6,3.4,9.7,3.4s7.2-1.1,9.6-3.4c2.4-2.2,3.7-5.4,3.7-9.3s-1.2-7.1-3.7-9.3c-2.4-2.2-5.7-3.4-9.6-3.4h-1.8c-.8,0-1.5-.3-2.1-.9-.6-.6-.9-1.3-.9-2.1v-14.4c0-.8.3-1.5.9-2.1s1.3-.9,2.1-.9h1.8c3.6,0,6.5-1,8.6-3.1,2.2-2.1,3.3-4.9,3.3-8.5s-1.1-6.2-3.3-8.3c-2.2-2-5.1-3.1-8.6-3.1s-6.3,1-8.6,3.1c-2.2,2-3.4,4.8-3.4,8.3v2.3c0,.8-.3,1.5-.9,2.1s-1.3.9-2.1.9h-14.7c-.8,0-1.5-.3-2.1-.9s-.9-1.3-.9-2.1v-2.3c0-4.5.9-8.7,2.6-12.6,1.7-3.9,4.1-7.3,7-10.2,3-2.9,6.4-5.2,10.4-6.9,4-1.7,8.2-2.5,12.7-2.5s8.7.8,12.7,2.5c4,1.7,7.4,4,10.4,6.9,3,2.9,5.3,6.3,7,10.2,1.7,3.9,2.5,8.1,2.5,12.6s-.8,7.6-2.3,11c-1.5,3.5-3.5,6.5-5.8,9-1,1-1,1.9,0,2.8,3,2.4,5.3,5.7,7,9.6,1.7,4,2.6,8.1,2.6,12.4s-.9,9.1-2.7,13.2c-1.8,4.1-4.2,7.6-7.3,10.6-3.1,3-6.7,5.4-10.9,7.1-4.1,1.7-8.5,2.6-13.2,2.6s-9.1-.9-13.2-2.6c-4.1-1.7-7.8-4.1-10.9-7.1-3.1-3-5.6-6.6-7.3-10.6-1.8-4.1-2.7-8.5-2.7-13.2v-1.5c0-.8.3-1.5.9-2.1s1.3-.9,2.1-.9h14.7c.8,0,1.5.3,2.1.9s.9,1.3.9,2.1v1.5Z" />
        <path class="cls-3"
          d="M3444.3,345.8c0-2.5-.8-4.7-2.5-6.4-1.7-1.7-4.2-2.6-7.4-2.6s-5.9.9-7.8,2.7c-1.9,1.8-2.9,4-2.9,6.5v46.7c0,.8-.3,1.5-.9,2.1-.6.6-1.3.9-2.1.9h-13.8c-.8,0-1.5-.3-2.1-.9s-.9-1.3-.9-2.1v-46.8c0-2.5-.8-4.7-2.5-6.4-1.7-1.7-4.2-2.6-7.4-2.6s-5.9.8-7.8,2.4c-1.9,1.6-2.9,3.6-2.9,6v47.5c0,.8-.3,1.5-.9,2.1s-1.3.9-2.1.9h-13.8c-.8,0-1.5-.3-2.1-.9s-.9-1.3-.9-2.1v-70.4c0-.8.3-1.5.9-2.1.6-.6,1.3-.9,2.1-.9h7.7c1.1,0,2,.4,2.8,1.1.6.6,1.2,1.3,1.7,1.9.5.7,1.3,1,2.4,1s2.2-.3,3.2-.9c1-.6,2.1-1.2,3.4-1.9,1.2-.7,2.6-1.3,4.1-1.9,1.5-.6,3.4-.9,5.7-.9,3.6,0,6.5.6,8.9,1.7,2.3,1.1,4.5,2.4,6.6,4,2.1,1.6,4.4,1.6,6.9,0,2-1.4,4.4-2.7,7-3.9,2.7-1.2,5.8-1.8,9.3-1.8s7.7.7,11.2,2.2c3.5,1.5,6.5,3.5,9,6,2.5,2.6,4.5,5.6,6,9,1.4,3.5,2.1,7.2,2.1,11.2v46.7c0,.8-.3,1.5-.9,2.1-.6.6-1.3.9-2.1.9h-13.8c-.8,0-1.5-.3-2.1-.9s-.9-1.3-.9-2.1v-46.8Z" />
      </g>
      <line class="cls-1" x1="2561.7" y1="731.1" x2="2539.9" y2="731.1" />
      <path class="cls-4" d="M2601.6,683.7c-.7.1-1.4.1-2.1,0h2.1Z" />
      <path class="cls-4" d="M2649.4,683.7c-.8.1-1.5.1-2.3,0h2.3Z" />
      <path class="cls-4" d="M2697.1,683.7c-.8.1-1.5.1-2.3,0h2.3Z" />
      <g>
        <g>
          <path class="cls-3"
            d="M2729.2,661.7c-4.2,11.3-8.5,22.3-12.6,33.5-1.7,4.6-3.1,9.3-4.7,14-.4,1-1,2.2-1.8,2.9-5,3.6-10.1,7.1-15.6,10.9-5.3-7-12.8-12.5-23-12.5-10.1,0-17.6,5.4-23.8,13.6-6.1-8.1-13.6-13.6-23.7-13.6-10.1,0-17.7,5.2-23.8,13.4-1-1.1-1.7-2-2.6-2.7-3-2.6-5.7-5.7-9.2-7.4-3.4-1.7-4.8-3.9-6-7.2-5.2-15-10.6-29.8-16.1-45.1,6.9-3.9,14.2-8,21.5-12.1,19.2-10.8,38.5-21.7,57.8-32.4,1-.6,2.9-.8,3.8-.2,26.3,14.7,52.5,29.5,78.8,44.3.4.2.7.5,1,.8h0Z" />
          <path class="cls-3"
            d="M2702.3,603.4h-15.6v-16.6h-29.3c-.9-8.1-1.7-15.8-2.5-23.5h-14.2c-.8,7.9-1.7,15.6-2.5,23.6h-29.6v16.8h-15.4c-.9,11.1-1.7,21.8-2.6,33.1,2.8-1.5,4.9-2.9,7.2-3.9,2.2-1,3.1-2.5,3.2-5,0-4,.6-7.9.8-11.9.1-2,.9-2.9,3.1-2.9,28.6,0,57.3,0,85.9,0,2.4,0,3.1,1,3.2,3.1.2,4.1.5,8.2.9,12.2,0,1,.2,2.5.9,2.9,2.8,1.8,5.8,3.4,9.4,5.4-.9-11.6-1.8-22.3-2.7-33.5ZM2677.2,603.3h-58.8v-6.7h58.8v6.7Z" />
          <path class="cls-3"
            d="M2742.9,731.6v9.1h0c0,0-.1,0-.2,0-5.7.4-9.8-2.5-13.3-6.3-.3-.3-.5-.8-.8-1.2-6.5-8.7-11.5-8.7-18.2-.3-8.6,10.8-20.9,10.9-29.7.2-1.3-1.6-2.7-3.1-4.2-4.5-2.8-2.5-7.1-2.6-9.9,0-1.8,1.6-3.2,3.5-4.8,5.4-7.9,9.3-19.7,9.5-27.9.4-1.5-1.7-2.9-3.5-4.5-5.1-3.4-3.4-7.7-3.4-11.2,0-1.5,1.5-2.9,3.2-4.3,4.9-7.3,8.9-20.1,9.2-27.6.3-1.6-1.8-3.1-3.7-4.8-5.4-3.5-3.3-7.4-3.3-10.8.1-2,2-3.6,4.2-5.5,6.2-3.3,3.3-7.2,5.7-12.4,5.4h-.3s0,0,0,0v-.3c0,0,0-7.3,0-7.3,2.2-2,4.2-3.6,6-5.3.9-.9,1.8-1.7,2.6-2.6,3.2-3.5,6.5-6.7,11.4-7.8,6.6-1.4,12.1.7,16.6,5.4,1.8,1.8,3.2,3.9,5,5.7,3.7,3.8,8,3.8,11.7,0,1.5-1.5,2.9-3.2,4.3-4.9,7.9-9,19.2-9.2,27.3-.3,1.6,1.8,3.1,3.7,4.8,5.4,3.5,3.4,7.7,3.4,11.2,0,1.8-1.8,3.3-3.8,5-5.7,7.6-8.2,18.3-8.3,26.1-.3,1.8,1.9,3.4,4,5.3,5.9,3.6,3.6,7.8,3.6,11.4,0,1.7-1.7,3.2-3.6,4.8-5.4,7.9-8.6,19.4-8.4,27.1.4,1.3,1.5,2.5,3.2,3.9,4.6,1.6,1.6,3.4,2.9,6.1,3.1h0Z" />
        </g>
        <path class="cls-4"
          d="M2748.7,708.3v4.8l-3.7,4.5h-193.4l-6-7.3v-2h9.4c1.5-.4,2.8-.8,4.1-1.2.9-.3,1.8-.6,2.6-.9.9-.3,1.8-.7,2.7-1,2.4-.8,5.1-1.4,8.6-1.7,6.6-.5,12.1.2,16.6,1.9,1.8.6,3.2,1.3,5,2,1.5.5,3.2.9,4.8.9.7,0,1.4,0,2.1,0,1.6,0,3.2-.4,4.7-.9,1.5-.5,2.9-1.1,4.3-1.7,7.9-3.1,19.2-3.1,27.3-.1,1.6.6,3.1,1.3,4.8,1.8,1.4.5,2.9.7,4.4.8.8,0,1.5,0,2.3,0,1.6,0,3.1-.4,4.5-.9,1.8-.6,3.3-1.3,5-1.9,7.6-2.8,18.3-2.8,26.1-.1,1.8.7,3.4,1.4,5.3,2,1.4.5,3,.8,4.6.9.8,0,1.5,0,2.3,0,1.6-.1,3.1-.4,4.6-.9,1.7-.6,3.2-1.2,4.8-1.8,6.7-2.5,16.1-2.8,23.4-1,1.3.3,2.5.7,3.6,1.1,1.3.5,2.5,1.1,3.9,1.6s3,.9,5.3,1h6Z" />
        <rect class="cls-4" x="2553" y="714.8" width="189" height="25.2" />
      </g>
      <polyline class="cls-3"
        points="2647.8 734.9 2734.4 734.9 2799.1 490.2 2801.5 481 2829.2 481 2829.2 481 3466.8 481 3466.8 507.7 2822.1 507.7 2762 734.9 2754.9 761.6 2647.5 761.6" />
      <polyline class="cls-3"
        points="2647.5 761.6 2540.6 761.6 2533.6 734.9 2473.5 507.7 1831.5 507.7 1831.5 481 2466.4 481 2466.4 481 2494.1 481 2496.5 490.2 2561.2 734.9 2647.8 734.9" />
    </g>
    <line class="cls-1" x1="796.4" y1="480.8" x2="774.6" y2="480.8" />
    <path class="cls-4" d="M836.3,433.3c-.7.1-1.4.1-2.1,0h2.1Z" />
    <path class="cls-4" d="M884,433.3c-.8.1-1.5.1-2.3,0h2.3Z" />
    <path class="cls-4" d="M931.7,433.3c-.8.1-1.5.1-2.3,0h2.3Z" />
    <g>
      <path class="cls-3"
        d="M1115,528c-12.3,32.7-24.6,65-36.5,97.4-4.9,13.4-8.9,27.2-13.6,40.7-1.1,3-2.8,6.5-5.3,8.3-14.5,10.5-29.3,20.5-45.5,31.7-15.4-20.3-37.2-36.4-67-36.3-29.5,0-51.2,15.7-69.2,39.6-17.9-23.6-39.5-39.4-68.9-39.5-29.5,0-51.4,15.2-69.3,39.1-2.9-3.1-5-5.8-7.5-7.9-8.7-7.5-16.7-16.6-26.7-21.5-9.9-4.9-14-11.3-17.4-21-15-43.5-30.9-86.7-46.9-131.2,20-11.3,41.2-23.4,62.4-35.3,56-31.5,112-63.1,168.1-94.4,3-1.7,8.3-2.2,11.1-.6,76.5,42.8,152.9,85.9,229.2,129,1.2.7,2.1,1.6,2.9,2.2h0Z" />
      <path class="cls-3"
        d="M1036.6,358.4h-45.4v-48.3h-85.3c-2.5-23.5-4.9-45.9-7.3-68.4h-41.4c-2.4,22.9-4.8,45.3-7.3,68.8h-86.1v48.8h-44.9c-2.5,32.2-4.9,63.3-7.5,96.3,8.2-4.5,14.3-8.3,20.9-11.3,6.5-3,9.1-7.2,9.2-14.5.1-11.5,1.6-23,2.3-34.6.4-5.9,2.6-8.4,9.1-8.4,83.3.2,166.6.2,249.9,0,7,0,9.1,2.8,9.4,9.2.5,11.9,1.5,23.7,2.5,35.6.3,3,.7,7.2,2.6,8.5,8.2,5.4,17,9.8,27.3,15.6-2.7-33.7-5.3-64.9-7.9-97.4ZM963.6,358h-171.1v-19.4h171.1v19.4Z" />
      <path class="cls-3"
        d="M1154.9,731.2v26.7c-.2,0-.4,0-.6,0-16.7,1.1-28.4-7.3-38.8-18.4-.9-1-1.5-2.3-2.4-3.4-19-25.2-33.5-25.5-53-.9-25.2,31.6-60.8,31.8-86.4.7-3.8-4.6-7.7-9.1-12.1-13.1-8.1-7.4-20.5-7.6-28.7-.1-5.1,4.7-9.4,10.3-14,15.6-23,27-57.4,27.6-81.1,1.1-4.4-5-8.5-10.3-13.2-14.9-10-9.9-22.4-9.8-32.5.1-4.4,4.4-8.4,9.4-12.4,14.2-21.3,25.8-58.4,26.7-80.4.8-4.5-5.3-8.9-10.8-13.9-15.7-10-9.7-21.6-9.5-31.5.3-5.7,5.7-10.5,12.2-16.1,17.9-9.7,9.7-20.8,16.6-36,15.8h-.8s0-.2,0-.2l-.2-.8v-21.2c6.5-5.8,12.3-10.6,17.5-15.3,2.7-2.5,5.3-5,7.7-7.5,9.4-10.1,18.9-19.5,33.1-22.6,19.3-4.2,35.1,2.1,48.4,15.8,5.1,5.3,9.4,11.3,14.5,16.6,10.6,11,23.2,11.1,33.9.2,4.4-4.5,8.3-9.4,12.5-14.1,23.1-26.3,55.8-26.6,79.5-.9,4.7,5.1,8.9,10.8,13.9,15.7,10.2,10,22.3,9.9,32.5-.2,5.2-5.2,9.6-11.1,14.6-16.5,22.1-23.7,53.3-24.1,75.9-.9,5.4,5.5,9.9,11.8,15.4,17.2,10.4,10.5,22.8,10.5,33.2,0,4.9-5,9.2-10.6,13.9-15.7,23-25.1,56.4-24.5,78.8,1.1,3.8,4.4,7.2,9.3,11.3,13.5,4.6,4.7,10,8.4,17.7,9.2h0Z" />
    </g>
    <g>
      <g>
        <path class="cls-3"
          d="M1880.7,1279.1c.2.5.5.8.9.8s.7-.3.9-.8l16.2-67c.4-1.7,1.5-2.6,3.2-2.6h22.5c.8,0,1.5.3,2.1.9.6.6.9,1.3.9,2.1v101c0,.8-.3,1.5-.9,2.1-.6.6-1.3.9-2.1.9h-13.5c-.8,0-1.5-.3-2.1-.9-.6-.6-.9-1.3-.9-2.1v-57.7c0-.5-.2-.8-.5-.9-.4-.1-.6.1-.8.6l-15.6,58.5c-.4,1.7-1.5,2.6-3.2,2.6h-12.1c-1.7,0-2.8-.9-3.2-2.6l-15.3-58.5c-.2-.5-.5-.7-.8-.6-.4.1-.5.4-.5.9v57.7c0,.8-.3,1.5-.9,2.1-.6.6-1.3.9-2.1.9h-13.5c-.8,0-1.5-.3-2.1-.9-.6-.6-.9-1.3-.9-2.1v-101c0-.8.3-1.5.9-2.1.6-.6,1.3-.9,2.1-.9h22.7c1.7,0,2.8.9,3.2,2.6l15.6,67Z" />
        <path class="cls-3"
          d="M1993.7,1284.8c0-3.3-1.2-5.8-3.6-7.6-2.4-1.8-6.5-3.3-12.3-4.7-4.8-1-9.3-2.4-13.5-4.1-4.2-1.7-7.8-3.8-10.9-6.4-3.1-2.5-5.5-5.6-7.3-9.3-1.8-3.6-2.7-7.9-2.7-12.8s.9-8.7,2.6-12.6c1.7-3.9,4.2-7.3,7.3-10.3,3.2-2.9,6.9-5.2,11.1-6.9,4.2-1.7,8.9-2.5,14-2.5s9.8.8,14.2,2.5c4.3,1.7,8.1,4,11.2,6.9,3.1,2.9,5.5,6.3,7.3,10.3,1.7,3.9,2.6,8.1,2.6,12.6v2.3c0,.8-.3,1.5-.9,2.1-.6.6-1.3.9-2.1.9h-15.5c-.8,0-1.5-.3-2.1-.9-.6-.6-.9-1.3-.9-2.1v-2.3c0-3.1-1.2-5.7-3.5-8-2.3-2.3-5.7-3.4-10.1-3.4s-7.6,1-9.9,3.1c-2.3,2-3.4,4.6-3.4,7.7s1.3,5.3,3.8,7.1c2.5,1.8,5.8,3.1,9.8,3.9,5.3,1.1,10.2,2.5,14.8,4.2,4.5,1.7,8.4,3.9,11.7,6.6,3.3,2.7,5.8,6,7.7,9.9,1.9,3.9,2.8,8.5,2.8,13.8s-.9,9.5-2.8,13.6c-1.8,4.1-4.4,7.6-7.7,10.6-3.3,3-7.3,5.3-11.9,6.9-4.6,1.6-9.6,2.4-15,2.4s-10.2-.9-14.6-2.6-8.3-4.1-11.5-7.1c-3.2-3-5.7-6.6-7.6-10.6-1.8-4.1-2.8-8.5-2.8-13.2v-4.6c0-.8.3-1.5.9-2.1s1.3-.9,2.1-.9h15.5c.8,0,1.5.3,2.1.9s.9,1.3.9,2.1v4.6c0,3.6,1.3,6.6,3.8,9,2.5,2.4,6.2,3.6,11,3.6s8.3-1.2,11-3.6c2.8-2.4,4.1-5.4,4.1-9Z" />
        <path class="cls-3"
          d="M2104.8,1209.5c4.3,0,8.3.8,11.9,2.4,3.7,1.6,6.9,3.9,9.6,6.7,2.7,2.8,4.8,6.1,6.4,9.9,1.5,3.8,2.3,7.9,2.3,12.2s-.7,6.9-2.2,10.5c-1.5,3.6-3.3,6.6-5.6,8.8s-1,1.9,0,2.8c1.2,1.1,2.4,2.4,3.5,4,1.1,1.5,2.1,3.2,2.9,5.1.8,1.8,1.5,3.8,1.9,5.8.5,2,.7,4,.7,6,0,5-.7,9.5-2.2,13.6-1.5,4.1-3.6,7.6-6.4,10.4-2.8,2.9-6.1,5.1-9.9,6.7-3.9,1.6-8.2,2.4-12.9,2.4h-36.1c-.8,0-1.5-.3-2.1-.9-.6-.6-.9-1.3-.9-2.1v-101c0-.8.3-1.5.9-2.1.6-.6,1.3-.9,2.1-.9h36.1ZM2104,1250.7c2.7,0,5-1,7-3,2-2,3.1-4.3,3.1-7s-1-4.9-3.1-6.9c-2-1.9-4.4-2.9-7-2.9h-15.9c-1,0-1.5.5-1.5,1.5v16.7c0,1,.5,1.5,1.5,1.5h15.9ZM2088.1,1272.1c-1,0-1.5.5-1.5,1.5v20.1c0,1,.5,1.5,1.5,1.5h15.9c3.3,0,5.9-1.2,7.8-3.5,1.9-2.3,2.9-5.1,2.9-8.1s-1-5.6-2.9-8c-1.9-2.3-4.5-3.5-7.8-3.5h-15.9Z" />
        <path class="cls-3"
          d="M2172.9,1273.8c-1,0-1.5.5-1.5,1.5v38.3c0,.8-.3,1.5-.9,2.1-.6.6-1.3.9-2.1.9h-15.3c-.8,0-1.5-.3-2.1-.9-.6-.6-.9-1.3-.9-2.1v-101c0-.8.3-1.5.9-2.1.6-.6,1.3-.9,2.1-.9h33.7c4.4,0,8.5.8,12.5,2.5,3.9,1.7,7.3,4,10.3,6.9,2.9,2.9,5.2,6.3,6.9,10.3,1.7,3.9,2.5,8.1,2.5,12.5s-1.3,11-3.8,15.2c-2.6,4.2-6.6,8.2-12.1,11.9-1.1.8-1.7,1.6-1.7,2.3s.3,1.6.8,2.8l16.4,38.3c.5,1.1.5,2.2,0,3.1-.5,1-1.5,1.5-3,1.5h-15.8c-1.2,0-2.2-.3-2.8-.8-.7-.6-1.2-1.3-1.6-2.2l-15.6-37.8c-.2-.4-.5-.8-.9-1.3-.4-.5-1-.7-1.8-.7h-4ZM2172.9,1230.9c-1,0-1.5.5-1.5,1.5v18.4c0,1,.5,1.5,1.5,1.5h13.8c3,0,5.5-1,7.6-3.1s3.1-4.6,3.1-7.6-1-5.5-3.1-7.6c-2.1-2.1-4.6-3.1-7.6-3.1h-13.8Z" />
        <path class="cls-3"
          d="M2280.5,1298.6c-.2-.6-.5-1.1-.8-1.6-.3-.5-.8-.7-1.5-.7h-23.3c-1.2,0-2,.8-2.3,2.3l-4.3,15.8c-.3,1.5-1.3,2.3-2.9,2.3h-16.1c-1.2,0-2.1-.3-2.6-1-.5-.7-.7-1.4-.5-2.1l27.4-101.8c.3-1.5,1.3-2.3,2.9-2.3h20.5c1.6,0,2.6.8,2.9,2.3l27.2,101.8c.2.7,0,1.4-.5,2.1-.5.7-1.4,1-2.6,1h-16.1c-1.4,0-2.4-.8-2.9-2.3l-4.7-15.8ZM2273.8,1274.8c1.1,0,1.5-.6,1.2-1.7l-7.3-36.7c-.1-.4-.4-.6-.8-.6h-.3c-.4,0-.7.2-.8.6l-7.3,36.7c-.3,1.1.1,1.7,1.2,1.7h14.1Z" />
        <path class="cls-3"
          d="M2339.3,1293.7c0,1,.5,1.5,1.5,1.5h36.3c.8,0,1.5.3,2.1.9.6.6.9,1.3.9,2.1v15.3c0,.8-.3,1.5-.9,2.1-.6.6-1.3.9-2.1.9h-56.2c-.8,0-1.5-.3-2.1-.9-.6-.6-.9-1.3-.9-2.1v-101c0-.8.3-1.5.9-2.1.6-.6,1.3-.9,2.1-.9h55.6c.8,0,1.5.3,2.1.9.6.6.9,1.3.9,2.1v15.3c0,.8-.3,1.5-.9,2.1-.6.6-1.3.9-2.1.9h-35.7c-1,0-1.5.5-1.5,1.5v18.4c0,1,.5,1.5,1.5,1.5h34.4c.8,0,1.5.3,2.1.9.6.6.9,1.3.9,2.1v15.3c0,.8-.3,1.5-.9,2.1-.6.6-1.3.9-2.1.9h-34.4c-1,0-1.5.5-1.5,1.5v18.4Z" />
        <path class="cls-3"
          d="M2440.8,1279.1c.2.5.5.8.9.8s.7-.3.9-.8l16.2-67c.4-1.7,1.5-2.6,3.2-2.6h22.5c.8,0,1.5.3,2.1.9.6.6.9,1.3.9,2.1v101c0,.8-.3,1.5-.9,2.1-.6.6-1.3.9-2.1.9h-13.5c-.8,0-1.5-.3-2.1-.9-.6-.6-.9-1.3-.9-2.1v-57.7c0-.5-.2-.8-.5-.9-.4-.1-.6.1-.8.6l-15.6,58.5c-.4,1.7-1.5,2.6-3.2,2.6h-12.1c-1.7,0-2.8-.9-3.2-2.6l-15.3-58.5c-.2-.5-.5-.7-.8-.6-.4.1-.5.4-.5.9v57.7c0,.8-.3,1.5-.9,2.1-.6.6-1.3.9-2.1.9h-13.5c-.8,0-1.5-.3-2.1-.9-.6-.6-.9-1.3-.9-2.1v-101c0-.8.3-1.5.9-2.1.6-.6,1.3-.9,2.1-.9h22.7c1.7,0,2.8.9,3.2,2.6l15.6,67Z" />
        <path class="cls-3"
          d="M2552.4,1298.6c-.2-.6-.5-1.1-.8-1.6-.3-.5-.8-.7-1.5-.7h-23.3c-1.2,0-2,.8-2.3,2.3l-4.3,15.8c-.3,1.5-1.3,2.3-2.9,2.3h-16.1c-1.2,0-2.1-.3-2.6-1-.5-.7-.7-1.4-.5-2.1l27.4-101.8c.3-1.5,1.3-2.3,2.9-2.3h20.5c1.6,0,2.6.8,2.9,2.3l27.2,101.8c.2.7,0,1.4-.5,2.1-.5.7-1.4,1-2.6,1h-16.1c-1.4,0-2.4-.8-2.9-2.3l-4.7-15.8ZM2545.6,1274.8c1.1,0,1.5-.6,1.2-1.7l-7.3-36.7c-.1-.4-.4-.6-.8-.6h-.3c-.4,0-.7.2-.8.6l-7.3,36.7c-.3,1.1.1,1.7,1.2,1.7h14.1Z" />
        <path class="cls-3"
          d="M2612.7,1273.8c-1,0-1.5.5-1.5,1.5v38.3c0,.8-.3,1.5-.9,2.1-.6.6-1.3.9-2.1.9h-15.3c-.8,0-1.5-.3-2.1-.9-.6-.6-.9-1.3-.9-2.1v-101c0-.8.3-1.5.9-2.1.6-.6,1.3-.9,2.1-.9h33.7c4.4,0,8.5.8,12.5,2.5,3.9,1.7,7.3,4,10.3,6.9,2.9,2.9,5.2,6.3,6.9,10.3,1.7,3.9,2.5,8.1,2.5,12.5s-1.3,11-3.8,15.2c-2.6,4.2-6.6,8.2-12.1,11.9-1.1.8-1.7,1.6-1.7,2.3s.3,1.6.8,2.8l16.4,38.3c.5,1.1.5,2.2,0,3.1-.5,1-1.5,1.5-3,1.5h-15.8c-1.2,0-2.2-.3-2.8-.8-.7-.6-1.2-1.3-1.6-2.2l-15.6-37.8c-.2-.4-.5-.8-.9-1.3-.4-.5-1-.7-1.8-.7h-4ZM2612.7,1230.9c-1,0-1.5.5-1.5,1.5v18.4c0,1,.5,1.5,1.5,1.5h13.8c3,0,5.5-1,7.6-3.1s3.1-4.6,3.1-7.6-1-5.5-3.1-7.6c-2.1-2.1-4.6-3.1-7.6-3.1h-13.8Z" />
        <path class="cls-3"
          d="M2755.2,1210.4c.6.6.9,1.3.9,2.1v101c0,.8-.3,1.5-.9,2.1-.6.6-1.3.9-2.1.9h-15.2c-.8,0-1.5-.3-2.1-.9-.6-.6-.9-1.3-.9-2.1v-73.5c0-1-.4-1.6-1.1-1.8-.7-.2-1.3,0-1.8.5l-23.7,23.6c-.9.9-2,1.1-3.3.6-1.3-.5-1.9-1.5-1.9-3.1v-15.3c0-1.2.1-2.4.4-3.4.3-1.1.9-2.2,2.1-3.3l23-24.8c.7-.8,1.7-1.6,2.9-2.4,1.2-.8,2.8-1.2,4.7-1.2h17c.8,0,1.5.3,2.1.9Z" />
        <path class="cls-3"
          d="M2806.9,1298.3c3.6,0,6.7-.7,9.3-2.2,2.6-1.5,4.5-4,5.6-7.6.8-2.4,1.2-5.3,1.2-8.6s-.4-1.8-1.2-2.1c-.8-.3-1.6-.2-2.4,0-1.1.4-2.9.9-5.4,1.5-2.4.6-4.8.8-7.2.8-4.5,0-8.6-.8-12.5-2.5-3.8-1.7-7.2-4-10.1-7-2.9-3-5.2-6.4-7-10.4-1.7-4-2.8-8.3-3.1-12.9-.1-1.4-.2-2.6-.2-3.6s0-2.3.2-3.9c.2-4.5,1.2-8.7,2.9-12.6,1.7-3.9,4.1-7.3,7-10.2,2.9-2.9,6.3-5.2,10.3-6.9,3.9-1.7,8.1-2.5,12.6-2.5s9.2.9,13.2,2.6c4,1.7,7.5,4.1,10.5,7.1,3,3,5.4,6.5,7.3,10.6,1.9,4,3.1,8.3,3.6,12.9.4,3.3.7,6.8.8,10.6.2,3.8.2,7.6.2,11.5s0,7.7-.2,11.6c-.2,3.8-.4,7.3-.8,10.5-.5,4.6-1.7,8.9-3.6,12.9-1.9,4-4.3,7.6-7.3,10.6-3,3-6.4,5.4-10.3,7.1-3.9,1.7-8.2,2.6-12.9,2.6s-9.2-.8-13.3-2.3c-4.1-1.5-7.6-3.6-10.6-6.4-3-2.7-5.4-5.9-7.1-9.6-1.7-3.7-2.6-7.7-2.6-11.9s.3-1.5.9-2.1c.6-.6,1.3-.9,2.1-.9h12.4c2.3,0,3.8,1,4.3,3.1.6,2.7,2,5,4.1,7,2.1,2,5.2,3.1,9.4,3.1ZM2820.2,1239.5c-.3-3.6-1.6-6.5-3.8-8.7-2.2-2.2-5.2-3.4-8.7-3.4s-6.5,1.1-8.7,3.4-3.5,5.2-3.8,8.7c-.2,1.7-.3,3.2-.3,4.3s.1,2.5.3,4.1c.4,3.6,1.7,6.6,3.9,9,2.2,2.4,5.1,3.7,8.6,3.7s6.5-1.2,8.6-3.7c2.2-2.5,3.5-5.5,3.9-9,.2-1.6.3-3,.3-4.1s-.1-2.5-.3-4.3Z" />
        <path class="cls-3"
          d="M2892.2,1245.3c4.7,0,9.1.9,13.2,2.7,4.1,1.8,7.8,4.2,10.9,7.3,3.1,3.1,5.6,6.7,7.3,10.9,1.8,4.1,2.7,8.5,2.7,13.2v5.4c0,4.7-.9,9.1-2.7,13.2-1.8,4.1-4.2,7.6-7.3,10.6-3.1,3-6.7,5.4-10.9,7.1s-8.5,2.6-13.2,2.6-9-.9-12.9-2.6c-3.9-1.7-7.4-4.1-10.3-7.1-3-3-5.4-6.5-7.3-10.6-1.9-4-3.1-8.3-3.6-12.9-.4-3.2-.7-6.7-.9-10.5-.2-3.8-.3-7.7-.3-11.6s0-7.7.3-11.5c.2-3.8.5-7.3.9-10.6.5-4.6,1.7-8.9,3.5-12.9,1.8-4,4.2-7.6,7.1-10.6,2.9-3,6.3-5.4,10.2-7.1,3.9-1.7,8.1-2.6,12.6-2.6s8.3.7,12.2,2.1c4,1.4,7.5,3.4,10.6,6,3.1,2.6,5.6,5.7,7.5,9.4,1.9,3.7,2.8,7.8,2.8,12.2s-.3,1.5-.9,2.1c-.6.6-1.3.9-2.1.9h-13c-2.3,0-3.8-1-4.3-3.1-.6-2.5-1.9-4.8-4-6.8-2-2-5-3-8.9-3s-5.2.6-7.1,1.8c-1.9,1.2-3.4,2.9-4.5,5.1-1.5,3-2.3,6.6-2.3,11s.4,1.9,1.1,2.2c.8.4,1.6.3,2.4-.2,1-.5,2.5-1,4.6-1.6,2-.6,4.2-.8,6.6-.8ZM2878.5,1285.1c.3,4,1.7,7.2,4.1,9.6,2.4,2.4,5.6,3.6,9.6,3.6s7.2-1.2,9.6-3.6c2.4-2.4,3.7-5.6,4.1-9.6.1-1.9.1-3.9,0-6-.3-4-1.7-7.3-4.1-9.9-2.4-2.6-5.6-3.9-9.6-3.9s-7.2,1.3-9.6,3.9c-2.4,2.6-3.8,5.9-4.1,9.9-.1,2-.1,4,0,6Z" />
        <path class="cls-3"
          d="M3023.5,1266.7c0-2.5-.8-4.7-2.5-6.4-1.7-1.7-4.2-2.6-7.4-2.6s-5.9.9-7.8,2.7c-1.9,1.8-2.9,4-2.9,6.5v46.7c0,.8-.3,1.5-.9,2.1-.6.6-1.3.9-2.1.9h-13.8c-.8,0-1.5-.3-2.1-.9s-.9-1.3-.9-2.1v-46.8c0-2.5-.8-4.7-2.5-6.4-1.7-1.7-4.2-2.6-7.4-2.6s-5.9.8-7.8,2.4c-1.9,1.6-2.9,3.6-2.9,6v47.5c0,.8-.3,1.5-.9,2.1s-1.3.9-2.1.9h-13.8c-.8,0-1.5-.3-2.1-.9s-.9-1.3-.9-2.1v-70.4c0-.8.3-1.5.9-2.1.6-.6,1.3-.9,2.1-.9h7.7c1.1,0,2,.4,2.8,1.1.6.6,1.2,1.3,1.7,1.9.5.7,1.3,1,2.4,1s2.2-.3,3.2-.9c1-.6,2.1-1.2,3.4-1.9,1.2-.7,2.6-1.3,4.1-1.9,1.5-.6,3.4-.9,5.7-.9,3.6,0,6.5.6,8.9,1.7,2.3,1.1,4.5,2.4,6.6,4,2.1,1.6,4.4,1.6,6.9,0,2-1.4,4.4-2.7,7-3.9,2.7-1.2,5.8-1.8,9.3-1.8s7.7.7,11.2,2.2c3.5,1.5,6.5,3.5,9,6,2.5,2.6,4.5,5.6,6,9,1.4,3.5,2.1,7.2,2.1,11.2v46.7c0,.8-.3,1.5-.9,2.1-.6.6-1.3.9-2.1.9h-13.8c-.8,0-1.5-.3-2.1-.9s-.9-1.3-.9-2.1v-46.8Z" />
        <path class="cls-3"
          d="M3125.9,1293.4c-.6-1.2-1.2-1.2-1.8,0l-11.9,21.7c-.2.4-.5.8-1,1.1s-1.3.5-2.4.5h-15.5c-1.4,0-2.4-.5-2.9-1.5-.5-1-.4-2.2.5-3.5l20.4-33.1c.4-.6.6-1.1.7-1.6,0-.5-.2-1-.7-1.8l-17.8-30c-.8-1.3-1-2.5-.5-3.5.5-1,1.5-1.5,2.9-1.5h14.2c1.1,0,1.9.2,2.4.5.5.3.8.7,1,1.1l10.6,19.1c.6,1.2,1.2,1.2,1.8,0l10.6-19.1c.2-.4.5-.8,1-1.1.5-.3,1.2-.5,2.4-.5h14.2c1.4,0,2.4.5,2.9,1.5.5,1,.4,2.2-.5,3.5l-18.1,30c-.5.7-.7,1.3-.7,1.8,0,.5.3,1,.7,1.6l20.2,33.1c.8,1.3,1,2.5.5,3.5-.5,1-1.5,1.5-2.9,1.5h-15.5c-1.1,0-1.9-.2-2.4-.5-.5-.3-.8-.7-1-1.1l-11.5-21.7Z" />
        <path class="cls-3"
          d="M3227.1,1242.2c0,.8-.3,1.5-.9,2.1-.6.6-1.3.9-2.1.9h-14.5c-.8,0-1.5-.3-2.1-.9s-.9-1.3-.9-2.1v-2.4c0-4.5.9-8.7,2.6-12.6,1.7-3.9,4.1-7.3,7-10.2,3-2.9,6.4-5.2,10.3-6.8,3.9-1.6,8.1-2.4,12.6-2.4s8.7.8,12.6,2.4c3.9,1.6,7.3,3.9,10.3,6.8,2.9,2.9,5.2,6.3,6.9,10.2,1.7,3.9,2.5,8.1,2.5,12.6s-.9,8.4-2.6,12.2c-1.7,3.9-4,7.3-6.9,10.4l-28.8,30.5c-.5.5-.7,1.1-.6,1.9.1.8.8,1.1,2.1,1.1h33.8c.8,0,1.5.3,2.1.9s.9,1.3.9,2.1v14.5c0,.8-.3,1.5-.9,2.1-.6.6-1.3.9-2.1.9h-60c-.8,0-1.5-.3-2.1-.9-.6-.6-.9-1.3-.9-2.1v-18.1c0-1.1.2-2,.5-2.5.3-.6.6-1,.9-1.3l39.6-42.1c.8-.9,1.7-2.4,2.8-4.4,1-2,1.5-3.9,1.5-5.5,0-3.1-1-5.7-2.9-7.9-1.9-2.2-4.6-3.3-8.1-3.3s-6.9,1-9.2,3.1c-2.2,2-3.4,4.7-3.4,8.1v2.6Z" />
        <path class="cls-3"
          d="M3305.3,1284.8c0,4,1.2,7.1,3.6,9.3,2.4,2.2,5.6,3.4,9.7,3.4s7.2-1.1,9.6-3.4c2.4-2.2,3.7-5.4,3.7-9.3s-1.2-7.1-3.7-9.3c-2.4-2.2-5.7-3.4-9.6-3.4h-1.8c-.8,0-1.5-.3-2.1-.9-.6-.6-.9-1.3-.9-2.1v-14.4c0-.8.3-1.5.9-2.1s1.3-.9,2.1-.9h1.8c3.6,0,6.5-1,8.6-3.1,2.2-2.1,3.3-4.9,3.3-8.5s-1.1-6.2-3.3-8.3c-2.2-2-5.1-3.1-8.6-3.1s-6.3,1-8.6,3.1c-2.2,2-3.4,4.8-3.4,8.3v2.3c0,.8-.3,1.5-.9,2.1s-1.3.9-2.1.9h-14.7c-.8,0-1.5-.3-2.1-.9s-.9-1.3-.9-2.1v-2.3c0-4.5.9-8.7,2.6-12.6,1.7-3.9,4.1-7.3,7-10.2,3-2.9,6.4-5.2,10.4-6.9,4-1.7,8.2-2.5,12.7-2.5s8.7.8,12.7,2.5c4,1.7,7.4,4,10.4,6.9,3,2.9,5.3,6.3,7,10.2,1.7,3.9,2.5,8.1,2.5,12.6s-.8,7.6-2.3,11c-1.5,3.5-3.5,6.5-5.8,9-1,1-1,1.9,0,2.8,3,2.4,5.3,5.7,7,9.6,1.7,4,2.6,8.1,2.6,12.4s-.9,9.1-2.7,13.2c-1.8,4.1-4.2,7.6-7.3,10.6-3.1,3-6.7,5.4-10.9,7.1-4.1,1.7-8.5,2.6-13.2,2.6s-9.1-.9-13.2-2.6c-4.1-1.7-7.8-4.1-10.9-7.1-3.1-3-5.6-6.6-7.3-10.6-1.8-4.1-2.7-8.5-2.7-13.2v-1.5c0-.8.3-1.5.9-2.1s1.3-.9,2.1-.9h14.7c.8,0,1.5.3,2.1.9s.9,1.3.9,2.1v1.5Z" />
        <path class="cls-3"
          d="M3449.9,1266.7c0-2.5-.8-4.7-2.5-6.4-1.7-1.7-4.2-2.6-7.4-2.6s-5.9.9-7.8,2.7c-1.9,1.8-2.9,4-2.9,6.5v46.7c0,.8-.3,1.5-.9,2.1-.6.6-1.3.9-2.1.9h-13.8c-.8,0-1.5-.3-2.1-.9s-.9-1.3-.9-2.1v-46.8c0-2.5-.8-4.7-2.5-6.4-1.7-1.7-4.2-2.6-7.4-2.6s-5.9.8-7.8,2.4c-1.9,1.6-2.9,3.6-2.9,6v47.5c0,.8-.3,1.5-.9,2.1s-1.3.9-2.1.9h-13.8c-.8,0-1.5-.3-2.1-.9s-.9-1.3-.9-2.1v-70.4c0-.8.3-1.5.9-2.1.6-.6,1.3-.9,2.1-.9h7.7c1.1,0,2,.4,2.8,1.1.6.6,1.2,1.3,1.7,1.9.5.7,1.3,1,2.4,1s2.2-.3,3.2-.9c1-.6,2.1-1.2,3.4-1.9,1.2-.7,2.6-1.3,4.1-1.9,1.5-.6,3.4-.9,5.7-.9,3.6,0,6.5.6,8.9,1.7,2.3,1.1,4.5,2.4,6.6,4,2.1,1.6,4.4,1.6,6.9,0,2-1.4,4.4-2.7,7-3.9,2.7-1.2,5.8-1.8,9.3-1.8s7.7.7,11.2,2.2c3.5,1.5,6.5,3.5,9,6,2.5,2.6,4.5,5.6,6,9,1.4,3.5,2.1,7.2,2.1,11.2v46.7c0,.8-.3,1.5-.9,2.1-.6.6-1.3.9-2.1.9h-13.8c-.8,0-1.5-.3-2.1-.9s-.9-1.3-.9-2.1v-46.8Z" />
      </g>
      <g>
        <path class="cls-3"
          d="M2756.1,1050.4c-5.4,14.2-10.7,28.2-15.9,42.3-2.1,5.8-3.9,11.8-5.9,17.7-.5,1.3-1.2,2.8-2.3,3.6-6.3,4.6-12.7,8.9-19.8,13.8-6.7-8.8-16.2-15.8-29.1-15.8-12.8,0-22.2,6.8-30.1,17.2-7.8-10.2-17.2-17.1-30-17.2-12.8,0-22.4,6.6-30.1,17-1.3-1.3-2.2-2.5-3.3-3.4-3.8-3.2-7.3-7.2-11.6-9.4-4.3-2.1-6.1-4.9-7.5-9.1-6.5-18.9-13.4-37.7-20.4-57,8.7-4.9,17.9-10.2,27.1-15.4,24.3-13.7,48.7-27.4,73.1-41,1.3-.7,3.6-.9,4.8-.3,33.3,18.6,66.4,37.3,99.6,56.1.5.3.9.7,1.3.9h0Z" />
        <path class="cls-3"
          d="M2722,976.6h-19.7v-21h-37.1c-1.1-10.2-2.1-20-3.2-29.7h-18c-1.1,10-2.1,19.7-3.2,29.9h-37.4v21.2h-19.5c-1.1,14-2.1,27.5-3.3,41.9,3.5-1.9,6.2-3.6,9.1-4.9,2.8-1.3,4-3.1,4-6.3,0-5,.7-10,1-15,.2-2.6,1.2-3.7,3.9-3.7,36.2,0,72.4,0,108.6,0,3,0,4,1.2,4.1,4,.2,5.2.6,10.3,1.1,15.5.1,1.3.3,3.1,1.1,3.7,3.6,2.3,7.4,4.3,11.9,6.8-1.2-14.7-2.3-28.2-3.4-42.3ZM2690.3,976.5h-74.4v-8.4h74.4v8.4Z" />
        <path class="cls-3"
          d="M2773.4,1138.7v11.5h0c0,.1-.2.1-.2.1-7.2.5-12.3-3.2-16.9-8-.4-.4-.7-1-1-1.5-8.3-11-14.5-11.1-23-.4-10.9,13.7-26.4,13.8-37.5.3-1.6-2-3.4-4-5.3-5.7-3.5-3.2-8.9-3.3-12.5,0-2.2,2-4.1,4.5-6.1,6.8-10,11.8-25,12-35.3.5-1.9-2.2-3.7-4.5-5.7-6.5-4.3-4.3-9.8-4.3-14.1,0-1.9,1.9-3.7,4.1-5.4,6.2-9.2,11.2-25.4,11.6-35,.4-2-2.3-3.9-4.7-6-6.8-4.4-4.2-9.4-4.1-13.7.1-2.5,2.5-4.6,5.3-7,7.8-4.2,4.2-9,7.2-15.6,6.9h-.3s0,0,0,0v-.3c0,0,0-9.2,0-9.2,2.8-2.5,5.3-4.6,7.6-6.6,1.2-1.1,2.3-2.2,3.3-3.3,4.1-4.4,8.2-8.5,14.4-9.8,8.4-1.8,15.3.9,21,6.9,2.2,2.3,4.1,4.9,6.3,7.2,4.6,4.8,10.1,4.8,14.8.1,1.9-1.9,3.6-4.1,5.4-6.1,10-11.4,24.3-11.6,34.5-.4,2.1,2.2,3.9,4.7,6,6.8,4.4,4.3,9.7,4.3,14.1,0,2.2-2.3,4.2-4.8,6.3-7.2,9.6-10.3,23.2-10.5,33-.4,2.3,2.4,4.3,5.1,6.7,7.5,4.5,4.6,9.9,4.5,14.4,0,2.1-2.2,4-4.6,6-6.8,10-10.9,24.5-10.7,34.2.5,1.7,1.9,3.1,4,4.9,5.8,2,2,4.3,3.6,7.7,4h0Z" />
      </g>
    </g>
  </g>
</svg>